<svg width="20" height="20" viewBox="0 0 20 20" fill="none" xmlns="http://www.w3.org/2000/svg">
<g clip-path="url(#clip0_146_1947)">
<g clip-path="url(#clip1_146_1947)">
<g clip-path="url(#clip2_146_1947)">
<path d="M12.4499 13.2163L13.1999 12.4663L10.5499 9.79967V6.44967H9.54992V10.1997L12.4499 13.2163ZM9.99992 16.6663C9.08881 16.6663 8.2277 16.4913 7.41658 16.1413C6.60547 15.7913 5.89714 15.3136 5.29159 14.708C4.68603 14.1025 4.20825 13.3941 3.85825 12.583C3.50825 11.7719 3.33325 10.9108 3.33325 9.99967C3.33325 9.08856 3.50825 8.22745 3.85825 7.41634C4.20825 6.60523 4.68603 5.8969 5.29159 5.29134C5.89714 4.68579 6.60547 4.20801 7.41658 3.85801C8.2277 3.50801 9.08881 3.33301 9.99992 3.33301C10.911 3.33301 11.7721 3.50801 12.5833 3.85801C13.3944 4.20801 14.1027 4.68579 14.7083 5.29134C15.3138 5.8969 15.7916 6.60523 16.1416 7.41634C16.4916 8.22745 16.6666 9.08856 16.6666 9.99967C16.6666 10.9108 16.4916 11.7719 16.1416 12.583C15.7916 13.3941 15.3138 14.1025 14.7083 14.708C14.1027 15.3136 13.3944 15.7913 12.5833 16.1413C11.7721 16.4913 10.911 16.6663 9.99992 16.6663ZM9.99992 15.6663C11.5555 15.6663 12.8888 15.1108 13.9999 13.9997C15.111 12.8886 15.6666 11.5552 15.6666 9.99967C15.6666 8.44412 15.111 7.11079 13.9999 5.99967C12.8888 4.88856 11.5555 4.33301 9.99992 4.33301C8.44436 4.33301 7.11103 4.88856 5.99992 5.99967C4.88881 7.11079 4.33325 8.44412 4.33325 9.99967C4.33325 11.5552 4.88881 12.8886 5.99992 13.9997C7.11103 15.1108 8.44436 15.6663 9.99992 15.6663Z" fill="black"/>
</g>
</g>
</g>
<defs>
<clipPath id="clip0_146_1947">
<rect width="20" height="20" fill="white"/>
</clipPath>
<clipPath id="clip1_146_1947">
<rect width="20" height="20" fill="white"/>
</clipPath>
<clipPath id="clip2_146_1947">
<rect width="16" height="16" fill="white" transform="translate(2 2)"/>
</clipPath>
</defs>
</svg>
