<svg width="20" height="20" viewBox="0 0 20 20" fill="none" xmlns="http://www.w3.org/2000/svg">
<g clip-path="url(#clip0_146_561)">
<path d="M17.1417 12.3837L18.3334 11.192L17.1417 10.0003L14.1667 12.9753L7.02502 5.83366L10 2.85866L8.80835 1.66699L7.61669 2.85866L6.42502 1.66699L4.64169 3.45033L3.45002 2.25866L2.25835 3.45033L3.45002 4.64199L1.66669 6.42533L2.85835 7.61699L1.66669 8.80866L2.85835 10.0003L5.83335 7.02533L12.975 14.167L10 17.142L11.1917 18.3337L12.3834 17.142L13.575 18.3337L15.3584 16.5503L16.55 17.742L17.7417 16.5503L16.55 15.3587L18.3334 13.5753L17.1417 12.3837Z" fill="black"/>
</g>
<defs>
<clipPath id="clip0_146_561">
<rect width="20" height="20" fill="white"/>
</clipPath>
</defs>
</svg>
