<svg width="286" height="91" viewBox="0 0 286 91" fill="none" xmlns="http://www.w3.org/2000/svg">
<path d="M3.568 75.68C4.03733 75.744 4.424 75.8293 4.728 75.936C5.03733 76.0427 5.28267 76.208 5.464 76.432C5.64533 76.6507 5.736 76.9467 5.736 77.32C5.736 77.6347 5.65067 77.9253 5.48 78.192C5.30933 78.4533 5.05333 78.664 4.712 78.824C4.376 78.984 3.97067 79.064 3.496 79.064C3 79.064 2.584 78.9707 2.248 78.784C1.912 78.592 1.66133 78.3413 1.496 78.032C1.336 77.7173 1.256 77.3787 1.256 77.016H2.056C2.06667 77.368 2.18133 77.68 2.4 77.952C2.624 78.224 2.98933 78.36 3.496 78.36C3.99733 78.36 4.35733 78.2613 4.576 78.064C4.79467 77.8613 4.904 77.6293 4.904 77.368C4.904 77.112 4.8 76.9147 4.592 76.776C4.38933 76.632 4.02133 76.528 3.488 76.464C2.81067 76.384 2.30133 76.2187 1.96 75.968C1.61867 75.7173 1.448 75.3573 1.448 74.888C1.448 74.5893 1.528 74.32 1.688 74.08C1.85333 73.84 2.09067 73.6507 2.4 73.512C2.71467 73.3733 3.08267 73.304 3.504 73.304C3.94667 73.304 4.31733 73.3867 4.616 73.552C4.91467 73.7173 5.136 73.936 5.28 74.208C5.42933 74.48 5.50933 74.776 5.52 75.096H4.744C4.744 74.9147 4.70133 74.7413 4.616 74.576C4.53067 74.4107 4.392 74.2747 4.2 74.168C4.01333 74.0613 3.776 74.008 3.488 74.008C3.06133 74.008 2.752 74.0907 2.56 74.256C2.368 74.4213 2.272 74.616 2.272 74.84C2.272 75.048 2.35733 75.224 2.528 75.368C2.704 75.5067 3.05067 75.6107 3.568 75.68ZM7.65619 75.576V77.72C7.65619 77.9547 7.69085 78.1147 7.76019 78.2C7.83485 78.2853 7.98152 78.328 8.20019 78.328H8.80819V79H8.13619C7.70419 79 7.38685 78.9093 7.18419 78.728C6.98685 78.5467 6.88819 78.2373 6.88819 77.8V75.576H6.12019V74.904H6.88819V73.752H7.65619V74.904H8.80819V75.576H7.65619ZM9.32631 77.856C9.32631 77.072 9.81698 76.6453 10.7983 76.576L11.2623 76.552C11.6143 76.5413 11.8703 76.5147 12.0303 76.472C12.1956 76.4293 12.2756 76.3333 12.2703 76.184C12.2596 75.736 11.913 75.512 11.2303 75.512C10.889 75.512 10.641 75.5707 10.4863 75.688C10.3316 75.8 10.2383 75.9653 10.2063 76.184H9.45431C9.52365 75.7307 9.71831 75.3947 10.0383 75.176C10.3583 74.952 10.7663 74.84 11.2623 74.84C11.801 74.84 12.2303 74.9733 12.5503 75.24C12.8756 75.5013 13.0383 75.976 13.0383 76.664V79H12.2703V78.608C12.2703 78.4587 12.2996 78.2987 12.3583 78.128C12.3636 78.112 12.369 78.0907 12.3743 78.064C12.3796 78.0373 12.3796 78.016 12.3743 78C12.3743 77.984 12.3663 77.9733 12.3503 77.968L12.3263 77.96C12.2996 77.96 12.281 77.9733 12.2703 78C12.265 78.0267 12.2596 78.0427 12.2543 78.048C12.137 78.3573 11.945 78.6053 11.6783 78.792C11.4116 78.9733 11.097 79.064 10.7343 79.064C10.4783 79.064 10.241 79.0133 10.0223 78.912C9.80898 78.8053 9.63831 78.6613 9.51031 78.48C9.38765 78.2933 9.32631 78.0853 9.32631 77.856ZM12.2703 76.792C12.1796 76.904 12.0516 76.9813 11.8863 77.024C11.7263 77.0667 11.4863 77.1093 11.1663 77.152C11.1076 77.1573 11.001 77.1707 10.8463 77.192C10.5903 77.2293 10.401 77.2987 10.2783 77.4C10.1556 77.496 10.0943 77.6347 10.0943 77.816C10.0943 77.976 10.153 78.1093 10.2703 78.216C10.393 78.3227 10.5716 78.376 10.8063 78.376C11.057 78.376 11.2916 78.3227 11.5103 78.216C11.7343 78.104 11.9156 77.9307 12.0543 77.696C12.1983 77.456 12.2703 77.1547 12.2703 76.792ZM14.6459 75.856C14.6725 75.856 14.6965 75.832 14.7179 75.784C14.8139 75.544 14.9125 75.36 15.0139 75.232C15.1152 75.0987 15.2592 75 15.4459 74.936C15.6379 74.872 15.9019 74.84 16.2379 74.84V75.624C16.1739 75.6187 16.0859 75.616 15.9739 75.616C15.4992 75.616 15.1685 75.728 14.9819 75.952C14.7952 76.1707 14.7019 76.5333 14.7019 77.04V79H13.9339V74.904H14.7019V75.176C14.7019 75.336 14.6725 75.5147 14.6139 75.712C14.6032 75.7547 14.5979 75.784 14.5979 75.8C14.5979 75.832 14.6112 75.8507 14.6379 75.856H14.6459ZM18.1562 75.576V77.72C18.1562 77.9547 18.1909 78.1147 18.2602 78.2C18.3349 78.2853 18.4815 78.328 18.7002 78.328H19.3082V79H18.6362C18.2042 79 17.8869 78.9093 17.6842 78.728C17.4869 78.5467 17.3882 78.2373 17.3882 77.8V75.576H16.6202V74.904H17.3882V73.752H18.1562V74.904H19.3082V75.576H18.1562ZM21.3673 77.968C21.4046 78.1173 21.4233 78.2747 21.4233 78.44C21.4233 78.504 21.4446 78.536 21.4873 78.536C21.53 78.536 21.5513 78.504 21.5513 78.44C21.5513 78.2747 21.57 78.1173 21.6073 77.968L22.3833 74.904H23.2793L24.0553 77.968C24.0926 78.1173 24.1113 78.2747 24.1113 78.44C24.1113 78.504 24.1326 78.536 24.1753 78.536C24.218 78.536 24.2393 78.504 24.2393 78.44C24.2393 78.2747 24.258 78.1173 24.2953 77.968L25.1353 74.904H25.9673L24.7193 79H23.6953L22.9353 76.088C22.9086 75.9547 22.8953 75.8107 22.8953 75.656C22.8953 75.624 22.89 75.6 22.8793 75.584C22.874 75.5627 22.858 75.552 22.8313 75.552C22.8046 75.552 22.786 75.5627 22.7753 75.584C22.77 75.6 22.7673 75.624 22.7673 75.656C22.7673 75.8107 22.754 75.9547 22.7273 76.088L21.9673 79H20.9433L19.6953 74.904H20.5273L21.3673 77.968ZM26.1623 77.856C26.1623 77.072 26.6529 76.6453 27.6343 76.576L28.0983 76.552C28.4503 76.5413 28.7063 76.5147 28.8663 76.472C29.0316 76.4293 29.1116 76.3333 29.1063 76.184C29.0956 75.736 28.7489 75.512 28.0663 75.512C27.7249 75.512 27.4769 75.5707 27.3223 75.688C27.1676 75.8 27.0743 75.9653 27.0423 76.184H26.2903C26.3596 75.7307 26.5543 75.3947 26.8743 75.176C27.1943 74.952 27.6023 74.84 28.0983 74.84C28.6369 74.84 29.0663 74.9733 29.3863 75.24C29.7116 75.5013 29.8743 75.976 29.8743 76.664V79H29.1063V78.608C29.1063 78.4587 29.1356 78.2987 29.1943 78.128C29.1996 78.112 29.2049 78.0907 29.2103 78.064C29.2156 78.0373 29.2156 78.016 29.2103 78C29.2103 77.984 29.2023 77.9733 29.1863 77.968L29.1623 77.96C29.1356 77.96 29.1169 77.9733 29.1063 78C29.1009 78.0267 29.0956 78.0427 29.0903 78.048C28.9729 78.3573 28.7809 78.6053 28.5143 78.792C28.2476 78.9733 27.9329 79.064 27.5703 79.064C27.3143 79.064 27.0769 79.0133 26.8583 78.912C26.6449 78.8053 26.4743 78.6613 26.3463 78.48C26.2236 78.2933 26.1623 78.0853 26.1623 77.856ZM29.1063 76.792C29.0156 76.904 28.8876 76.9813 28.7223 77.024C28.5623 77.0667 28.3223 77.1093 28.0023 77.152C27.9436 77.1573 27.8369 77.1707 27.6823 77.192C27.4263 77.2293 27.2369 77.2987 27.1143 77.4C26.9916 77.496 26.9303 77.6347 26.9303 77.816C26.9303 77.976 26.9889 78.1093 27.1063 78.216C27.2289 78.3227 27.4076 78.376 27.6423 78.376C27.8929 78.376 28.1276 78.3227 28.3463 78.216C28.5703 78.104 28.7516 77.9307 28.8903 77.696C29.0343 77.456 29.1063 77.1547 29.1063 76.792ZM30.5763 77.856C30.5763 77.072 31.067 76.6453 32.0483 76.576L32.5123 76.552C32.8643 76.5413 33.1203 76.5147 33.2803 76.472C33.4456 76.4293 33.5256 76.3333 33.5203 76.184C33.5096 75.736 33.163 75.512 32.4803 75.512C32.139 75.512 31.891 75.5707 31.7363 75.688C31.5816 75.8 31.4883 75.9653 31.4563 76.184H30.7043C30.7736 75.7307 30.9683 75.3947 31.2883 75.176C31.6083 74.952 32.0163 74.84 32.5123 74.84C33.051 74.84 33.4803 74.9733 33.8003 75.24C34.1256 75.5013 34.2883 75.976 34.2883 76.664V79H33.5203V78.608C33.5203 78.4587 33.5496 78.2987 33.6083 78.128C33.6136 78.112 33.619 78.0907 33.6243 78.064C33.6296 78.0373 33.6296 78.016 33.6243 78C33.6243 77.984 33.6163 77.9733 33.6003 77.968L33.5763 77.96C33.5496 77.96 33.531 77.9733 33.5203 78C33.515 78.0267 33.5096 78.0427 33.5043 78.048C33.387 78.3573 33.195 78.6053 32.9283 78.792C32.6616 78.9733 32.347 79.064 31.9843 79.064C31.7283 79.064 31.491 79.0133 31.2723 78.912C31.059 78.8053 30.8883 78.6613 30.7603 78.48C30.6376 78.2933 30.5763 78.0853 30.5763 77.856ZM33.5203 76.792C33.4296 76.904 33.3016 76.9813 33.1363 77.024C32.9763 77.0667 32.7363 77.1093 32.4163 77.152C32.3576 77.1573 32.251 77.1707 32.0963 77.192C31.8403 77.2293 31.651 77.2987 31.5283 77.4C31.4056 77.496 31.3443 77.6347 31.3443 77.816C31.3443 77.976 31.403 78.1093 31.5203 78.216C31.643 78.3227 31.8216 78.376 32.0563 78.376C32.307 78.376 32.5416 78.3227 32.7603 78.216C32.9843 78.104 33.1656 77.9307 33.3043 77.696C33.4483 77.456 33.5203 77.1547 33.5203 76.792ZM35.8959 75.856C35.9225 75.856 35.9465 75.832 35.9679 75.784C36.0639 75.544 36.1625 75.36 36.2639 75.232C36.3652 75.0987 36.5092 75 36.6959 74.936C36.8879 74.872 37.1519 74.84 37.4879 74.84V75.624C37.4239 75.6187 37.3359 75.616 37.2239 75.616C36.7492 75.616 36.4185 75.728 36.2319 75.952C36.0452 76.1707 35.9519 76.5333 35.9519 77.04V79H35.1839V74.904H35.9519V75.176C35.9519 75.336 35.9225 75.5147 35.8639 75.712C35.8532 75.7547 35.8479 75.784 35.8479 75.8C35.8479 75.832 35.8612 75.8507 35.8879 75.856H35.8959ZM41.6459 79H40.8779V78.656C40.8779 78.512 40.9045 78.368 40.9579 78.224C40.9792 78.1813 40.9899 78.1467 40.9899 78.12C40.9899 78.088 40.9739 78.0693 40.9419 78.064H40.9259C40.8992 78.064 40.8779 78.088 40.8619 78.136C40.7659 78.424 40.5925 78.6507 40.3419 78.816C40.0965 78.9813 39.8112 79.064 39.4859 79.064C39.1392 79.064 38.8272 78.9733 38.5499 78.792C38.2779 78.6107 38.0645 78.36 37.9099 78.04C37.7552 77.7147 37.6779 77.352 37.6779 76.952C37.6779 76.552 37.7552 76.192 37.9099 75.872C38.0645 75.5467 38.2779 75.2933 38.5499 75.112C38.8272 74.9307 39.1392 74.84 39.4859 74.84C39.8112 74.84 40.0992 74.9227 40.3499 75.088C40.6005 75.2533 40.7712 75.4747 40.8619 75.752C40.8832 75.8213 40.9152 75.848 40.9579 75.832C40.9845 75.8267 40.9979 75.8107 40.9979 75.784C40.9979 75.7627 40.9925 75.7413 40.9819 75.72C40.9712 75.6933 40.9632 75.6747 40.9579 75.664C40.9045 75.5253 40.8779 75.3787 40.8779 75.224V73.24H41.6459V79ZM39.6459 78.36C39.8805 78.36 40.0912 78.296 40.2779 78.168C40.4699 78.04 40.6165 77.8693 40.7179 77.656C40.8245 77.4373 40.8779 77.2027 40.8779 76.952C40.8779 76.7013 40.8245 76.4693 40.7179 76.256C40.6165 76.0373 40.4699 75.864 40.2779 75.736C40.0912 75.608 39.8805 75.544 39.6459 75.544C39.2619 75.544 38.9659 75.68 38.7579 75.952C38.5499 76.2187 38.4459 76.552 38.4459 76.952C38.4459 77.352 38.5499 77.688 38.7579 77.96C38.9659 78.2267 39.2619 78.36 39.6459 78.36ZM46.1273 76.896C46.1273 76.992 46.1193 77.0853 46.1033 77.176H43.0473C43.0739 77.5173 43.1993 77.8 43.4233 78.024C43.6473 78.248 43.9379 78.36 44.2953 78.36C44.5619 78.36 44.7699 78.2987 44.9193 78.176C45.0739 78.048 45.1886 77.8613 45.2633 77.616H46.0553C45.9646 78.032 45.7673 78.3787 45.4633 78.656C45.1646 78.928 44.7699 79.064 44.2793 79.064C43.8633 79.064 43.5033 78.9707 43.1993 78.784C42.9006 78.5973 42.6739 78.344 42.5193 78.024C42.3646 77.704 42.2873 77.3467 42.2873 76.952C42.2873 76.5467 42.3699 76.184 42.5353 75.864C42.7006 75.544 42.9326 75.2933 43.2313 75.112C43.5353 74.9307 43.8793 74.84 44.2633 74.84C44.5833 74.84 44.8846 74.9147 45.1673 75.064C45.4553 75.208 45.6873 75.4347 45.8633 75.744C46.0393 76.0533 46.1273 76.4373 46.1273 76.896ZM45.3593 76.536C45.3326 76.2267 45.2259 75.9787 45.0393 75.792C44.8526 75.6053 44.6073 75.512 44.3033 75.512C43.9459 75.512 43.6686 75.6053 43.4713 75.792C43.2793 75.9787 43.1513 76.2267 43.0872 76.536H45.3593ZM53.6795 73.368V79H52.8475V76.536H50.0315V79H49.1995V73.368H50.0315V75.832H52.8475V73.368H53.6795ZM56.8033 73.368C57.55 73.368 58.0913 73.5227 58.4273 73.832C58.7633 74.136 58.9313 74.5573 58.9313 75.096C58.9313 75.464 58.7953 75.7813 58.5233 76.048C58.2566 76.3093 57.9073 76.4693 57.4753 76.528C57.422 76.5387 57.3953 76.5627 57.3953 76.6C57.3953 76.648 57.4246 76.672 57.4833 76.672C57.8406 76.688 58.0966 76.7547 58.2513 76.872C58.4113 76.9893 58.526 77.1413 58.5953 77.328L59.1873 79H58.1793L57.8353 77.672C57.7606 77.3787 57.614 77.176 57.3953 77.064C57.1766 76.9467 56.8513 76.888 56.4193 76.888H55.5393V79H54.7073V73.368H56.8033ZM56.7313 76.184C56.9873 76.184 57.2193 76.136 57.4273 76.04C57.6353 75.944 57.798 75.816 57.9153 75.656C58.038 75.4907 58.0993 75.3093 58.0993 75.112C58.0993 74.776 57.998 74.52 57.7953 74.344C57.598 74.1627 57.3073 74.072 56.9233 74.072H55.5393V76.184H56.7313ZM61.5425 78.152C61.5852 78.2853 61.6118 78.4027 61.6225 78.504C61.6332 78.5573 61.6545 78.584 61.6865 78.584C61.7185 78.584 61.7398 78.5573 61.7505 78.504C61.7612 78.4027 61.7878 78.2853 61.8305 78.152L63.3825 73.368H64.3105L62.3265 79H61.0465L59.0625 73.368H59.9905L61.5425 78.152Z" fill="black"/>
<path d="M126.047 73.368V79H125.215V76.536H122.399V79H121.567V73.368H122.399V75.832H125.215V73.368H126.047ZM129.171 73.368C129.917 73.368 130.459 73.5227 130.795 73.832C131.131 74.136 131.299 74.5573 131.299 75.096C131.299 75.464 131.163 75.7813 130.891 76.048C130.624 76.3093 130.275 76.4693 129.843 76.528C129.789 76.5387 129.763 76.5627 129.763 76.6C129.763 76.648 129.792 76.672 129.851 76.672C130.208 76.688 130.464 76.7547 130.619 76.872C130.779 76.9893 130.893 77.1413 130.963 77.328L131.555 79H130.547L130.203 77.672C130.128 77.3787 129.981 77.176 129.763 77.064C129.544 76.9467 129.219 76.888 128.787 76.888H127.907V79H127.075V73.368H129.171ZM129.099 76.184C129.355 76.184 129.587 76.136 129.795 76.04C130.003 75.944 130.165 75.816 130.283 75.656C130.405 75.4907 130.467 75.3093 130.467 75.112C130.467 74.776 130.365 74.52 130.163 74.344C129.965 74.1627 129.675 74.072 129.291 74.072H127.907V76.184H129.099ZM133.91 78.152C133.952 78.2853 133.979 78.4027 133.99 78.504C134 78.5573 134.022 78.584 134.054 78.584C134.086 78.584 134.107 78.5573 134.118 78.504C134.128 78.4027 134.155 78.2853 134.198 78.152L135.75 73.368H136.678L134.694 79H133.414L131.43 73.368H132.358L133.91 78.152ZM143.864 74.84C144.286 74.84 144.622 74.9707 144.872 75.232C145.128 75.488 145.256 75.912 145.256 76.504V79H144.488V76.408C144.488 75.8107 144.219 75.512 143.68 75.512C143.526 75.512 143.376 75.56 143.232 75.656C143.094 75.7467 142.979 75.88 142.888 76.056C142.803 76.232 142.76 76.44 142.76 76.68V79H141.992V76.504C141.992 76.1787 141.934 75.9333 141.816 75.768C141.699 75.5973 141.512 75.512 141.256 75.512C141.091 75.512 140.931 75.568 140.776 75.68C140.622 75.792 140.496 75.952 140.4 76.16C140.31 76.3627 140.264 76.5947 140.264 76.856V79H139.496V74.904H140.264V75.176C140.264 75.336 140.235 75.5093 140.176 75.696C140.176 75.7067 140.171 75.7253 140.16 75.752C140.155 75.7733 140.155 75.792 140.16 75.808C140.166 75.8187 140.176 75.8267 140.192 75.832H140.216C140.243 75.832 140.264 75.8107 140.28 75.768C140.382 75.4853 140.542 75.2613 140.76 75.096C140.984 74.9253 141.235 74.84 141.512 74.84C141.768 74.84 141.992 74.9227 142.184 75.088C142.376 75.248 142.502 75.456 142.56 75.712C142.571 75.7547 142.598 75.776 142.64 75.776C142.683 75.776 142.712 75.7547 142.728 75.712C142.835 75.4347 142.987 75.2213 143.184 75.072C143.387 74.9173 143.614 74.84 143.864 74.84ZM149.737 76.896C149.737 76.992 149.729 77.0853 149.713 77.176H146.657C146.683 77.5173 146.809 77.8 147.033 78.024C147.257 78.248 147.547 78.36 147.905 78.36C148.171 78.36 148.379 78.2987 148.529 78.176C148.683 78.048 148.798 77.8613 148.873 77.616H149.665C149.574 78.032 149.377 78.3787 149.073 78.656C148.774 78.928 148.379 79.064 147.889 79.064C147.473 79.064 147.113 78.9707 146.809 78.784C146.51 78.5973 146.283 78.344 146.129 78.024C145.974 77.704 145.897 77.3467 145.897 76.952C145.897 76.5467 145.979 76.184 146.145 75.864C146.31 75.544 146.542 75.2933 146.841 75.112C147.145 74.9307 147.489 74.84 147.873 74.84C148.193 74.84 148.494 74.9147 148.777 75.064C149.065 75.208 149.297 75.4347 149.473 75.744C149.649 76.0533 149.737 76.4373 149.737 76.896ZM148.969 76.536C148.942 76.2267 148.835 75.9787 148.649 75.792C148.462 75.6053 148.217 75.512 147.913 75.512C147.555 75.512 147.278 75.6053 147.081 75.792C146.889 75.9787 146.761 76.2267 146.697 76.536H148.969ZM151.398 75.576V77.72C151.398 77.9547 151.433 78.1147 151.502 78.2C151.577 78.2853 151.724 78.328 151.942 78.328H152.55V79H151.878C151.446 79 151.129 78.9093 150.926 78.728C150.729 78.5467 150.63 78.2373 150.63 77.8V75.576H149.862V74.904H150.63V73.752H151.398V74.904H152.55V75.576H151.398ZM153.355 73.24H154.187V74.136H153.355V73.24ZM153.387 74.904H154.155V79H153.387V74.904ZM157.306 74.84C157.791 74.84 158.164 74.9813 158.426 75.264C158.692 75.5467 158.826 75.9813 158.826 76.568V79H158.058V76.728C158.058 76.28 157.972 75.9653 157.802 75.784C157.636 75.6027 157.407 75.512 157.114 75.512C156.911 75.512 156.714 75.5787 156.522 75.712C156.335 75.84 156.18 76.024 156.058 76.264C155.94 76.504 155.882 76.7787 155.882 77.088V79H155.114V74.904H155.882V75.176C155.882 75.368 155.852 75.5493 155.794 75.72C155.778 75.7733 155.767 75.8133 155.762 75.84C155.762 75.8667 155.775 75.8827 155.802 75.888H155.818C155.844 75.888 155.868 75.864 155.89 75.816C155.948 75.672 156.044 75.5253 156.178 75.376C156.311 75.2213 156.474 75.0933 156.666 74.992C156.863 74.8907 157.076 74.84 157.306 74.84ZM159.467 76.92C159.467 76.5147 159.542 76.1547 159.691 75.84C159.846 75.5253 160.059 75.28 160.331 75.104C160.608 74.928 160.923 74.84 161.275 74.84C161.59 74.84 161.864 74.9173 162.099 75.072C162.334 75.2267 162.518 75.44 162.651 75.712C162.672 75.7813 162.702 75.8107 162.739 75.8C162.766 75.7947 162.779 75.7787 162.779 75.752C162.779 75.7307 162.774 75.7067 162.763 75.68C162.752 75.648 162.744 75.6267 162.739 75.616C162.712 75.5467 162.694 75.48 162.683 75.416C162.672 75.352 162.667 75.272 162.667 75.176V74.904H163.435V78.632C163.435 79.2773 163.256 79.7653 162.899 80.096C162.547 80.432 162.072 80.6 161.475 80.6C160.899 80.6 160.451 80.472 160.131 80.216C159.811 79.9653 159.632 79.6453 159.595 79.256H160.363C160.395 79.4693 160.488 79.6453 160.643 79.784C160.798 79.9227 161.072 79.992 161.467 79.992C161.856 79.992 162.152 79.8773 162.355 79.648C162.563 79.4187 162.667 79.08 162.667 78.632C162.667 78.4667 162.691 78.3253 162.739 78.208C162.766 78.1387 162.779 78.0987 162.779 78.088C162.779 78.0613 162.766 78.0453 162.739 78.04H162.723C162.691 78.04 162.667 78.064 162.651 78.112C162.518 78.3947 162.334 78.6133 162.099 78.768C161.864 78.9227 161.59 79 161.275 79C160.923 79 160.608 78.912 160.331 78.736C160.059 78.56 159.846 78.3147 159.691 78C159.542 77.6853 159.467 77.3253 159.467 76.92ZM161.451 78.296C161.808 78.296 162.099 78.1653 162.323 77.904C162.552 77.6427 162.667 77.3147 162.667 76.92C162.667 76.5253 162.552 76.1973 162.323 75.936C162.099 75.6747 161.808 75.544 161.451 75.544C161.067 75.544 160.768 75.672 160.555 75.928C160.342 76.184 160.235 76.5147 160.235 76.92C160.235 77.3253 160.342 77.656 160.555 77.912C160.768 78.168 161.067 78.296 161.451 78.296ZM119.717 88.152C119.76 88.2747 119.781 88.4027 119.781 88.536C119.781 88.6053 119.802 88.64 119.845 88.64C119.888 88.64 119.909 88.6053 119.909 88.536C119.909 88.4027 119.93 88.2747 119.973 88.152L121.061 84.904H121.893L120.421 89H119.269L117.797 84.904H118.629L119.717 88.152ZM124.006 84.84C124.406 84.84 124.755 84.9333 125.054 85.12C125.358 85.3067 125.59 85.5627 125.75 85.888C125.91 86.208 125.99 86.5627 125.99 86.952C125.99 87.3413 125.91 87.6987 125.75 88.024C125.59 88.344 125.358 88.5973 125.054 88.784C124.755 88.9707 124.406 89.064 124.006 89.064C123.606 89.064 123.254 88.9707 122.95 88.784C122.651 88.5973 122.422 88.344 122.262 88.024C122.102 87.6987 122.022 87.3413 122.022 86.952C122.022 86.5627 122.102 86.208 122.262 85.888C122.422 85.5627 122.651 85.3067 122.95 85.12C123.254 84.9333 123.606 84.84 124.006 84.84ZM124.006 88.36C124.379 88.36 124.675 88.2267 124.894 87.96C125.112 87.688 125.222 87.352 125.222 86.952C125.222 86.552 125.112 86.2187 124.894 85.952C124.675 85.68 124.379 85.544 124.006 85.544C123.632 85.544 123.336 85.68 123.118 85.952C122.899 86.2187 122.79 86.552 122.79 86.952C122.79 87.352 122.899 87.688 123.118 87.96C123.336 88.2267 123.632 88.36 124.006 88.36ZM128.482 84.84C128.882 84.84 129.232 84.9333 129.53 85.12C129.834 85.3067 130.066 85.5627 130.226 85.888C130.386 86.208 130.466 86.5627 130.466 86.952C130.466 87.3413 130.386 87.6987 130.226 88.024C130.066 88.344 129.834 88.5973 129.53 88.784C129.232 88.9707 128.882 89.064 128.482 89.064C128.082 89.064 127.73 88.9707 127.426 88.784C127.128 88.5973 126.898 88.344 126.738 88.024C126.578 87.6987 126.498 87.3413 126.498 86.952C126.498 86.5627 126.578 86.208 126.738 85.888C126.898 85.5627 127.128 85.3067 127.426 85.12C127.73 84.9333 128.082 84.84 128.482 84.84ZM128.482 88.36C128.856 88.36 129.152 88.2267 129.37 87.96C129.589 87.688 129.698 87.352 129.698 86.952C129.698 86.552 129.589 86.2187 129.37 85.952C129.152 85.68 128.856 85.544 128.482 85.544C128.109 85.544 127.813 85.68 127.594 85.952C127.376 86.2187 127.266 86.552 127.266 86.952C127.266 87.352 127.376 87.688 127.594 87.96C127.813 88.2267 128.109 88.36 128.482 88.36ZM131.818 85.856C131.844 85.856 131.868 85.832 131.89 85.784C131.986 85.544 132.084 85.36 132.186 85.232C132.287 85.0987 132.431 85 132.618 84.936C132.81 84.872 133.074 84.84 133.41 84.84V85.624C133.346 85.6187 133.258 85.616 133.146 85.616C132.671 85.616 132.34 85.728 132.154 85.952C131.967 86.1707 131.874 86.5333 131.874 87.04V89H131.106V84.904H131.874V85.176C131.874 85.336 131.844 85.5147 131.786 85.712C131.775 85.7547 131.77 85.784 131.77 85.8C131.77 85.832 131.783 85.8507 131.81 85.856H131.818ZM138.209 84.84C138.609 84.84 138.958 84.9333 139.257 85.12C139.561 85.3067 139.793 85.5627 139.953 85.888C140.113 86.208 140.193 86.5627 140.193 86.952C140.193 87.3413 140.113 87.6987 139.953 88.024C139.793 88.344 139.561 88.5973 139.257 88.784C138.958 88.9707 138.609 89.064 138.209 89.064C137.809 89.064 137.457 88.9707 137.153 88.784C136.854 88.5973 136.625 88.344 136.465 88.024C136.305 87.6987 136.225 87.3413 136.225 86.952C136.225 86.5627 136.305 86.208 136.465 85.888C136.625 85.5627 136.854 85.3067 137.153 85.12C137.457 84.9333 137.809 84.84 138.209 84.84ZM138.209 88.36C138.582 88.36 138.878 88.2267 139.097 87.96C139.315 87.688 139.425 87.352 139.425 86.952C139.425 86.552 139.315 86.2187 139.097 85.952C138.878 85.68 138.582 85.544 138.209 85.544C137.835 85.544 137.539 85.68 137.321 85.952C137.102 86.2187 136.993 86.552 136.993 86.952C136.993 87.352 137.102 87.688 137.321 87.96C137.539 88.2267 137.835 88.36 138.209 88.36ZM144.541 86.896C144.541 86.992 144.533 87.0853 144.517 87.176H141.461C141.488 87.5173 141.613 87.8 141.837 88.024C142.061 88.248 142.352 88.36 142.709 88.36C142.976 88.36 143.184 88.2987 143.333 88.176C143.488 88.048 143.603 87.8613 143.677 87.616H144.469C144.379 88.032 144.181 88.3787 143.877 88.656C143.579 88.928 143.184 89.064 142.693 89.064C142.277 89.064 141.917 88.9707 141.613 88.784C141.315 88.5973 141.088 88.344 140.933 88.024C140.779 87.704 140.701 87.3467 140.701 86.952C140.701 86.5467 140.784 86.184 140.949 85.864C141.115 85.544 141.347 85.2933 141.645 85.112C141.949 84.9307 142.293 84.84 142.677 84.84C142.997 84.84 143.299 84.9147 143.581 85.064C143.869 85.208 144.101 85.4347 144.277 85.744C144.453 86.0533 144.541 86.4373 144.541 86.896ZM143.773 86.536C143.747 86.2267 143.64 85.9787 143.453 85.792C143.267 85.6053 143.021 85.512 142.717 85.512C142.36 85.512 142.083 85.6053 141.885 85.792C141.693 85.9787 141.565 86.2267 141.501 86.536H143.773ZM146.752 83.912C146.533 83.912 146.387 83.9547 146.312 84.04C146.243 84.1253 146.208 84.2853 146.208 84.52V84.904H147.36V85.576H146.208V89H145.44V85.576H144.8V84.904H145.44V84.44C145.44 84.0027 145.539 83.6933 145.736 83.512C145.939 83.3307 146.256 83.24 146.688 83.24H147.36V83.912H146.752ZM151.455 86.896C151.455 86.992 151.447 87.0853 151.431 87.176H148.375C148.402 87.5173 148.527 87.8 148.751 88.024C148.975 88.248 149.266 88.36 149.623 88.36C149.89 88.36 150.098 88.2987 150.247 88.176C150.402 88.048 150.517 87.8613 150.591 87.616H151.383C151.293 88.032 151.095 88.3787 150.791 88.656C150.493 88.928 150.098 89.064 149.607 89.064C149.191 89.064 148.831 88.9707 148.527 88.784C148.229 88.5973 148.002 88.344 147.847 88.024C147.693 87.704 147.615 87.3467 147.615 86.952C147.615 86.5467 147.698 86.184 147.863 85.864C148.029 85.544 148.261 85.2933 148.559 85.112C148.863 84.9307 149.207 84.84 149.591 84.84C149.911 84.84 150.213 84.9147 150.495 85.064C150.783 85.208 151.015 85.4347 151.191 85.744C151.367 86.0533 151.455 86.4373 151.455 86.896ZM150.687 86.536C150.661 86.2267 150.554 85.9787 150.367 85.792C150.181 85.6053 149.935 85.512 149.631 85.512C149.274 85.512 148.997 85.6053 148.799 85.792C148.607 85.9787 148.479 86.2267 148.415 86.536H150.687ZM154.29 84.84C154.775 84.84 155.149 84.9813 155.41 85.264C155.677 85.5467 155.81 85.9813 155.81 86.568V89H155.042V86.728C155.042 86.28 154.957 85.9653 154.786 85.784C154.621 85.6027 154.391 85.512 154.098 85.512C153.895 85.512 153.698 85.5787 153.506 85.712C153.319 85.84 153.165 86.024 153.042 86.264C152.925 86.504 152.866 86.7787 152.866 87.088V89H152.098V84.904H152.866V85.176C152.866 85.368 152.837 85.5493 152.778 85.72C152.762 85.7733 152.751 85.8133 152.746 85.84C152.746 85.8667 152.759 85.8827 152.786 85.888H152.802C152.829 85.888 152.853 85.864 152.874 85.816C152.933 85.672 153.029 85.5253 153.162 85.376C153.295 85.2213 153.458 85.0933 153.65 84.992C153.847 84.8907 154.061 84.84 154.29 84.84ZM156.613 83.24H157.445V84.136H156.613V83.24ZM156.645 84.904H157.413V89H156.645V84.904ZM160.563 84.84C161.049 84.84 161.422 84.9813 161.683 85.264C161.95 85.5467 162.083 85.9813 162.083 86.568V89H161.315V86.728C161.315 86.28 161.23 85.9653 161.059 85.784C160.894 85.6027 160.665 85.512 160.371 85.512C160.169 85.512 159.971 85.5787 159.779 85.712C159.593 85.84 159.438 86.024 159.315 86.264C159.198 86.504 159.139 86.7787 159.139 87.088V89H158.371V84.904H159.139V85.176C159.139 85.368 159.11 85.5493 159.051 85.72C159.035 85.7733 159.025 85.8133 159.019 85.84C159.019 85.8667 159.033 85.8827 159.059 85.888H159.075C159.102 85.888 159.126 85.864 159.147 85.816C159.206 85.672 159.302 85.5253 159.435 85.376C159.569 85.2213 159.731 85.0933 159.923 84.992C160.121 84.8907 160.334 84.84 160.563 84.84ZM162.725 86.92C162.725 86.5147 162.799 86.1547 162.949 85.84C163.103 85.5253 163.317 85.28 163.589 85.104C163.866 84.928 164.181 84.84 164.533 84.84C164.847 84.84 165.122 84.9173 165.357 85.072C165.591 85.2267 165.775 85.44 165.909 85.712C165.93 85.7813 165.959 85.8107 165.997 85.8C166.023 85.7947 166.037 85.7787 166.037 85.752C166.037 85.7307 166.031 85.7067 166.021 85.68C166.01 85.648 166.002 85.6267 165.997 85.616C165.97 85.5467 165.951 85.48 165.941 85.416C165.93 85.352 165.925 85.272 165.925 85.176V84.904H166.693V88.632C166.693 89.2773 166.514 89.7653 166.157 90.096C165.805 90.432 165.33 90.6 164.733 90.6C164.157 90.6 163.709 90.472 163.389 90.216C163.069 89.9653 162.89 89.6453 162.853 89.256H163.621C163.653 89.4693 163.746 89.6453 163.901 89.784C164.055 89.9227 164.33 89.992 164.725 89.992C165.114 89.992 165.41 89.8773 165.613 89.648C165.821 89.4187 165.925 89.08 165.925 88.632C165.925 88.4667 165.949 88.3253 165.997 88.208C166.023 88.1387 166.037 88.0987 166.037 88.088C166.037 88.0613 166.023 88.0453 165.997 88.04H165.981C165.949 88.04 165.925 88.064 165.909 88.112C165.775 88.3947 165.591 88.6133 165.357 88.768C165.122 88.9227 164.847 89 164.533 89C164.181 89 163.866 88.912 163.589 88.736C163.317 88.56 163.103 88.3147 162.949 88C162.799 87.6853 162.725 87.3253 162.725 86.92ZM164.709 88.296C165.066 88.296 165.357 88.1653 165.581 87.904C165.81 87.6427 165.925 87.3147 165.925 86.92C165.925 86.5253 165.81 86.1973 165.581 85.936C165.357 85.6747 165.066 85.544 164.709 85.544C164.325 85.544 164.026 85.672 163.813 85.928C163.599 86.184 163.493 86.5147 163.493 86.92C163.493 87.3253 163.599 87.656 163.813 87.912C164.026 88.168 164.325 88.296 164.709 88.296Z" fill="black"/>
<circle cx="33" cy="33" r="30.5" stroke="#F000F5" stroke-width="5"/>
<path d="M21.32 37.336C21.32 38.232 21.6 38.952 22.16 39.496C22.736 40.04 23.656 40.312 24.92 40.312C26.056 40.312 26.904 40.096 27.464 39.664C28.04 39.232 28.328 38.672 28.328 37.984C28.328 36.4 26.344 35.608 22.376 35.608V33.112C24.168 33.112 25.544 32.92 26.504 32.536C27.464 32.136 27.944 31.536 27.944 30.736C27.944 30.144 27.696 29.672 27.2 29.32C26.704 28.968 25.96 28.792 24.968 28.792C23.864 28.792 23.04 29.048 22.496 29.56C21.968 30.056 21.704 30.664 21.704 31.384H18.728C18.728 30.328 18.976 29.392 19.472 28.576C19.968 27.744 20.68 27.096 21.608 26.632C22.536 26.152 23.632 25.912 24.896 25.912C26.16 25.912 27.256 26.104 28.184 26.488C29.112 26.872 29.816 27.4 30.296 28.072C30.776 28.744 31.016 29.496 31.016 30.328C31.016 31.08 30.776 31.792 30.296 32.464C29.832 33.136 29.192 33.608 28.376 33.88C28.36 33.88 28.312 33.896 28.232 33.928C28.152 33.944 28.088 33.976 28.04 34.024C27.992 34.072 27.968 34.144 27.968 34.24C27.968 34.368 28.008 34.456 28.088 34.504C28.168 34.536 28.272 34.56 28.4 34.576C29.392 34.8 30.136 35.24 30.632 35.896C31.144 36.552 31.4 37.312 31.4 38.176C31.4 39.104 31.144 39.952 30.632 40.72C30.136 41.472 29.4 42.072 28.424 42.52C27.464 42.968 26.312 43.192 24.968 43.192C22.856 43.192 21.224 42.672 20.072 41.632C18.92 40.592 18.344 39.16 18.344 37.336H21.32ZM47.15 33.232C47.15 36.368 46.598 38.816 45.494 40.576C44.406 42.32 42.694 43.192 40.358 43.192C39.302 43.192 38.334 42.992 37.454 42.592C36.59 42.176 35.894 41.616 35.366 40.912C34.838 40.208 34.542 39.432 34.478 38.584H37.502C37.774 39.736 38.718 40.312 40.334 40.312C41.454 40.312 42.286 40.024 42.83 39.448C43.39 38.872 43.71 38.192 43.79 37.408C43.806 37.104 43.886 36.816 44.03 36.544C44.062 36.464 44.134 36.36 44.246 36.232C44.358 36.088 44.422 35.984 44.438 35.92C44.47 35.84 44.438 35.768 44.342 35.704C44.326 35.688 44.302 35.68 44.27 35.68C44.174 35.68 44.086 35.728 44.006 35.824C43.942 35.904 43.902 35.952 43.886 35.968C42.862 37.088 41.526 37.648 39.878 37.648C38.646 37.648 37.59 37.408 36.71 36.928C35.846 36.448 35.19 35.784 34.742 34.936C34.31 34.088 34.094 33.12 34.094 32.032C34.094 30.88 34.35 29.84 34.862 28.912C35.39 27.984 36.142 27.256 37.118 26.728C38.094 26.184 39.23 25.912 40.526 25.912C42.59 25.912 44.206 26.528 45.374 27.76C46.558 28.976 47.15 30.8 47.15 33.232ZM44.078 31.864C44.078 30.952 43.774 30.216 43.166 29.656C42.558 29.08 41.71 28.792 40.622 28.792C39.534 28.792 38.686 29.08 38.078 29.656C37.47 30.216 37.166 30.952 37.166 31.864C37.166 32.92 37.462 33.728 38.054 34.288C38.662 34.848 39.518 35.128 40.622 35.128C41.694 35.128 42.534 34.816 43.142 34.192C43.766 33.568 44.078 32.792 44.078 31.864Z" fill="black"/>
<circle cx="143" cy="33" r="30.5" stroke="#FFD24F" stroke-width="5"/>
<path d="M132.064 32.608C132.528 32.24 133.08 31.96 133.72 31.768C134.36 31.56 135.032 31.456 135.736 31.456C136.712 31.456 137.624 31.664 138.472 32.08C139.336 32.48 140.04 33.112 140.584 33.976C141.128 34.84 141.4 35.928 141.4 37.24C141.4 38.36 141.136 39.376 140.608 40.288C140.08 41.184 139.304 41.896 138.28 42.424C137.272 42.936 136.056 43.192 134.632 43.192C133.384 43.192 132.28 42.952 131.32 42.472C130.376 41.992 129.64 41.328 129.112 40.48C128.6 39.632 128.344 38.68 128.344 37.624H131.368C131.368 38.376 131.664 39.016 132.256 39.544C132.864 40.056 133.72 40.312 134.824 40.312C135.944 40.312 136.808 40.04 137.416 39.496C138.024 38.952 138.328 38.2 138.328 37.24C138.328 36.28 138.04 35.528 137.464 34.984C136.904 34.424 136.032 34.144 134.848 34.144C134.064 34.144 133.416 34.28 132.904 34.552C132.392 34.824 131.944 35.208 131.56 35.704H128.728L129.88 26.104H139.888V28.984H132.376L132.208 30.64C132.16 31.136 132.024 31.6 131.8 32.032C131.752 32.112 131.688 32.2 131.608 32.296C131.544 32.392 131.504 32.472 131.488 32.536C131.488 32.6 131.52 32.664 131.584 32.728C131.616 32.76 131.664 32.776 131.728 32.776C131.84 32.776 131.952 32.72 132.064 32.608ZM150.622 25.912C152.094 25.912 153.342 26.288 154.366 27.04C155.406 27.776 156.19 28.8 156.718 30.112C157.262 31.408 157.534 32.888 157.534 34.552C157.534 36.216 157.262 37.704 156.718 39.016C156.19 40.312 155.406 41.336 154.366 42.088C153.342 42.824 152.094 43.192 150.622 43.192C149.15 43.192 147.894 42.824 146.854 42.088C145.83 41.336 145.046 40.312 144.502 39.016C143.974 37.704 143.71 36.216 143.71 34.552C143.71 32.888 143.974 31.408 144.502 30.112C145.046 28.8 145.83 27.776 146.854 27.04C147.894 26.288 149.15 25.912 150.622 25.912ZM150.622 40.312C151.87 40.312 152.822 39.792 153.478 38.752C154.134 37.696 154.462 36.296 154.462 34.552C154.462 32.808 154.134 31.416 153.478 30.376C152.822 29.32 151.87 28.792 150.622 28.792C149.374 28.792 148.422 29.32 147.766 30.376C147.11 31.416 146.782 32.808 146.782 34.552C146.782 36.296 147.11 37.696 147.766 38.752C148.422 39.792 149.374 40.312 150.622 40.312Z" fill="black"/>
<circle cx="253" cy="33" r="30.5" stroke="#00F58E" stroke-width="5"/>
<path d="M249.12 34.528C250 34.864 250.664 35.352 251.112 35.992C251.56 36.632 251.784 37.368 251.784 38.2C251.784 39.128 251.52 39.976 250.992 40.744C250.464 41.496 249.688 42.096 248.664 42.544C247.656 42.976 246.456 43.192 245.064 43.192C243.672 43.192 242.464 42.976 241.44 42.544C240.432 42.096 239.664 41.496 239.136 40.744C238.608 39.976 238.344 39.128 238.344 38.2C238.344 37.368 238.568 36.632 239.016 35.992C239.464 35.352 240.128 34.864 241.008 34.528C241.04 34.512 241.104 34.488 241.2 34.456C241.296 34.424 241.368 34.384 241.416 34.336C241.48 34.272 241.512 34.2 241.512 34.12C241.512 34.008 241.48 33.928 241.416 33.88C241.352 33.832 241.28 33.8 241.2 33.784C241.136 33.752 241.088 33.728 241.056 33.712C240.384 33.392 239.856 32.952 239.472 32.392C239.104 31.816 238.92 31.192 238.92 30.52C238.92 29.704 239.152 28.944 239.616 28.24C240.08 27.536 240.768 26.976 241.68 26.56C242.608 26.128 243.736 25.912 245.064 25.912C246.392 25.912 247.512 26.128 248.424 26.56C249.352 26.976 250.048 27.536 250.512 28.24C250.976 28.944 251.208 29.704 251.208 30.52C251.208 31.192 251.016 31.824 250.632 32.416C250.264 32.992 249.744 33.424 249.072 33.712C249.04 33.728 248.976 33.752 248.88 33.784C248.8 33.816 248.736 33.864 248.688 33.928C248.64 33.976 248.616 34.04 248.616 34.12C248.616 34.232 248.648 34.312 248.712 34.36C248.792 34.408 248.872 34.448 248.952 34.48C249.032 34.496 249.088 34.512 249.12 34.528ZM245.064 28.696C244.04 28.696 243.272 28.896 242.76 29.296C242.248 29.68 241.992 30.184 241.992 30.808C241.992 31.432 242.248 31.944 242.76 32.344C243.272 32.728 244.04 32.92 245.064 32.92C246.088 32.92 246.856 32.728 247.368 32.344C247.88 31.944 248.136 31.432 248.136 30.808C248.136 30.184 247.88 29.68 247.368 29.296C246.856 28.896 246.088 28.696 245.064 28.696ZM245.064 40.408C246.248 40.408 247.152 40.184 247.776 39.736C248.4 39.288 248.712 38.712 248.712 38.008C248.712 37.304 248.4 36.728 247.776 36.28C247.152 35.832 246.248 35.608 245.064 35.608C243.88 35.608 242.976 35.832 242.352 36.28C241.728 36.728 241.416 37.304 241.416 38.008C241.416 38.712 241.728 39.288 242.352 39.736C242.976 40.184 243.88 40.408 245.064 40.408ZM258.189 32.608C258.653 32.24 259.205 31.96 259.845 31.768C260.485 31.56 261.157 31.456 261.861 31.456C262.837 31.456 263.749 31.664 264.597 32.08C265.461 32.48 266.165 33.112 266.709 33.976C267.253 34.84 267.525 35.928 267.525 37.24C267.525 38.36 267.261 39.376 266.733 40.288C266.205 41.184 265.429 41.896 264.405 42.424C263.397 42.936 262.181 43.192 260.757 43.192C259.509 43.192 258.405 42.952 257.445 42.472C256.501 41.992 255.765 41.328 255.237 40.48C254.725 39.632 254.469 38.68 254.469 37.624H257.493C257.493 38.376 257.789 39.016 258.381 39.544C258.989 40.056 259.845 40.312 260.949 40.312C262.069 40.312 262.933 40.04 263.541 39.496C264.149 38.952 264.453 38.2 264.453 37.24C264.453 36.28 264.165 35.528 263.589 34.984C263.029 34.424 262.157 34.144 260.973 34.144C260.189 34.144 259.541 34.28 259.029 34.552C258.517 34.824 258.069 35.208 257.685 35.704H254.853L256.005 26.104H266.013V28.984H258.501L258.333 30.64C258.285 31.136 258.149 31.6 257.925 32.032C257.877 32.112 257.813 32.2 257.733 32.296C257.669 32.392 257.629 32.472 257.613 32.536C257.613 32.6 257.645 32.664 257.709 32.728C257.741 32.76 257.789 32.776 257.853 32.776C257.965 32.776 258.077 32.72 258.189 32.608Z" fill="black"/>
<path d="M236.547 73.368V79H235.715V76.536H232.899V79H232.067V73.368H232.899V75.832H235.715V73.368H236.547ZM239.671 73.368C240.417 73.368 240.959 73.5227 241.295 73.832C241.631 74.136 241.799 74.5573 241.799 75.096C241.799 75.464 241.663 75.7813 241.391 76.048C241.124 76.3093 240.775 76.4693 240.343 76.528C240.289 76.5387 240.263 76.5627 240.263 76.6C240.263 76.648 240.292 76.672 240.351 76.672C240.708 76.688 240.964 76.7547 241.119 76.872C241.279 76.9893 241.393 77.1413 241.463 77.328L242.055 79H241.047L240.703 77.672C240.628 77.3787 240.481 77.176 240.263 77.064C240.044 76.9467 239.719 76.888 239.287 76.888H238.407V79H237.575V73.368H239.671ZM239.599 76.184C239.855 76.184 240.087 76.136 240.295 76.04C240.503 75.944 240.665 75.816 240.783 75.656C240.905 75.4907 240.967 75.3093 240.967 75.112C240.967 74.776 240.865 74.52 240.663 74.344C240.465 74.1627 240.175 74.072 239.791 74.072H238.407V76.184H239.599ZM244.41 78.152C244.452 78.2853 244.479 78.4027 244.49 78.504C244.5 78.5573 244.522 78.584 244.554 78.584C244.586 78.584 244.607 78.5573 244.618 78.504C244.628 78.4027 244.655 78.2853 244.698 78.152L246.25 73.368H247.178L245.194 79H243.914L241.93 73.368H242.858L244.41 78.152ZM254.364 74.84C254.786 74.84 255.122 74.9707 255.372 75.232C255.628 75.488 255.756 75.912 255.756 76.504V79H254.988V76.408C254.988 75.8107 254.719 75.512 254.18 75.512C254.026 75.512 253.876 75.56 253.732 75.656C253.594 75.7467 253.479 75.88 253.388 76.056C253.303 76.232 253.26 76.44 253.26 76.68V79H252.492V76.504C252.492 76.1787 252.434 75.9333 252.316 75.768C252.199 75.5973 252.012 75.512 251.756 75.512C251.591 75.512 251.431 75.568 251.276 75.68C251.122 75.792 250.996 75.952 250.9 76.16C250.81 76.3627 250.764 76.5947 250.764 76.856V79H249.996V74.904H250.764V75.176C250.764 75.336 250.735 75.5093 250.676 75.696C250.676 75.7067 250.671 75.7253 250.66 75.752C250.655 75.7733 250.655 75.792 250.66 75.808C250.666 75.8187 250.676 75.8267 250.692 75.832H250.716C250.743 75.832 250.764 75.8107 250.78 75.768C250.882 75.4853 251.042 75.2613 251.26 75.096C251.484 74.9253 251.735 74.84 252.012 74.84C252.268 74.84 252.492 74.9227 252.684 75.088C252.876 75.248 253.002 75.456 253.06 75.712C253.071 75.7547 253.098 75.776 253.14 75.776C253.183 75.776 253.212 75.7547 253.228 75.712C253.335 75.4347 253.487 75.2213 253.684 75.072C253.887 74.9173 254.114 74.84 254.364 74.84ZM260.237 76.896C260.237 76.992 260.229 77.0853 260.213 77.176H257.157C257.183 77.5173 257.309 77.8 257.533 78.024C257.757 78.248 258.047 78.36 258.405 78.36C258.671 78.36 258.879 78.2987 259.029 78.176C259.183 78.048 259.298 77.8613 259.373 77.616H260.165C260.074 78.032 259.877 78.3787 259.573 78.656C259.274 78.928 258.879 79.064 258.389 79.064C257.973 79.064 257.613 78.9707 257.309 78.784C257.01 78.5973 256.783 78.344 256.629 78.024C256.474 77.704 256.397 77.3467 256.397 76.952C256.397 76.5467 256.479 76.184 256.645 75.864C256.81 75.544 257.042 75.2933 257.341 75.112C257.645 74.9307 257.989 74.84 258.373 74.84C258.693 74.84 258.994 74.9147 259.277 75.064C259.565 75.208 259.797 75.4347 259.973 75.744C260.149 76.0533 260.237 76.4373 260.237 76.896ZM259.469 76.536C259.442 76.2267 259.335 75.9787 259.149 75.792C258.962 75.6053 258.717 75.512 258.413 75.512C258.055 75.512 257.778 75.6053 257.581 75.792C257.389 75.9787 257.261 76.2267 257.197 76.536H259.469ZM261.898 75.576V77.72C261.898 77.9547 261.933 78.1147 262.002 78.2C262.077 78.2853 262.224 78.328 262.442 78.328H263.05V79H262.378C261.946 79 261.629 78.9093 261.426 78.728C261.229 78.5467 261.13 78.2373 261.13 77.8V75.576H260.362V74.904H261.13V73.752H261.898V74.904H263.05V75.576H261.898ZM263.855 73.24H264.687V74.136H263.855V73.24ZM263.887 74.904H264.655V79H263.887V74.904ZM267.806 74.84C268.291 74.84 268.664 74.9813 268.926 75.264C269.192 75.5467 269.326 75.9813 269.326 76.568V79H268.558V76.728C268.558 76.28 268.472 75.9653 268.302 75.784C268.136 75.6027 267.907 75.512 267.614 75.512C267.411 75.512 267.214 75.5787 267.022 75.712C266.835 75.84 266.68 76.024 266.558 76.264C266.44 76.504 266.382 76.7787 266.382 77.088V79H265.614V74.904H266.382V75.176C266.382 75.368 266.352 75.5493 266.294 75.72C266.278 75.7733 266.267 75.8133 266.262 75.84C266.262 75.8667 266.275 75.8827 266.302 75.888H266.318C266.344 75.888 266.368 75.864 266.39 75.816C266.448 75.672 266.544 75.5253 266.678 75.376C266.811 75.2213 266.974 75.0933 267.166 74.992C267.363 74.8907 267.576 74.84 267.806 74.84ZM269.967 76.92C269.967 76.5147 270.042 76.1547 270.191 75.84C270.346 75.5253 270.559 75.28 270.831 75.104C271.108 74.928 271.423 74.84 271.775 74.84C272.09 74.84 272.364 74.9173 272.599 75.072C272.834 75.2267 273.018 75.44 273.151 75.712C273.172 75.7813 273.202 75.8107 273.239 75.8C273.266 75.7947 273.279 75.7787 273.279 75.752C273.279 75.7307 273.274 75.7067 273.263 75.68C273.252 75.648 273.244 75.6267 273.239 75.616C273.212 75.5467 273.194 75.48 273.183 75.416C273.172 75.352 273.167 75.272 273.167 75.176V74.904H273.935V78.632C273.935 79.2773 273.756 79.7653 273.399 80.096C273.047 80.432 272.572 80.6 271.975 80.6C271.399 80.6 270.951 80.472 270.631 80.216C270.311 79.9653 270.132 79.6453 270.095 79.256H270.863C270.895 79.4693 270.988 79.6453 271.143 79.784C271.298 79.9227 271.572 79.992 271.967 79.992C272.356 79.992 272.652 79.8773 272.855 79.648C273.063 79.4187 273.167 79.08 273.167 78.632C273.167 78.4667 273.191 78.3253 273.239 78.208C273.266 78.1387 273.279 78.0987 273.279 78.088C273.279 78.0613 273.266 78.0453 273.239 78.04H273.223C273.191 78.04 273.167 78.064 273.151 78.112C273.018 78.3947 272.834 78.6133 272.599 78.768C272.364 78.9227 272.09 79 271.775 79C271.423 79 271.108 78.912 270.831 78.736C270.559 78.56 270.346 78.3147 270.191 78C270.042 77.6853 269.967 77.3253 269.967 76.92ZM271.951 78.296C272.308 78.296 272.599 78.1653 272.823 77.904C273.052 77.6427 273.167 77.3147 273.167 76.92C273.167 76.5253 273.052 76.1973 272.823 75.936C272.599 75.6747 272.308 75.544 271.951 75.544C271.567 75.544 271.268 75.672 271.055 75.928C270.842 76.184 270.735 76.5147 270.735 76.92C270.735 77.3253 270.842 77.656 271.055 77.912C271.268 78.168 271.567 78.296 271.951 78.296ZM234.392 84.84C234.877 84.84 235.25 84.9813 235.512 85.264C235.778 85.5467 235.911 85.9813 235.911 86.568V89H235.144V86.728C235.144 86.28 235.058 85.9653 234.888 85.784C234.722 85.6027 234.493 85.512 234.2 85.512C233.997 85.512 233.8 85.5787 233.608 85.712C233.421 85.84 233.266 86.024 233.144 86.264C233.026 86.504 232.968 86.7787 232.968 87.088V89H232.2V84.904H232.968V85.176C232.968 85.368 232.938 85.5493 232.88 85.72C232.864 85.7733 232.853 85.8133 232.848 85.84C232.848 85.8667 232.861 85.8827 232.888 85.888H232.904C232.93 85.888 232.954 85.864 232.976 85.816C233.034 85.672 233.13 85.5253 233.264 85.376C233.397 85.2213 233.56 85.0933 233.752 84.992C233.949 84.8907 234.162 84.84 234.392 84.84ZM236.553 87.856C236.553 87.072 237.044 86.6453 238.025 86.576L238.489 86.552C238.841 86.5413 239.097 86.5147 239.257 86.472C239.422 86.4293 239.502 86.3333 239.497 86.184C239.486 85.736 239.14 85.512 238.457 85.512C238.116 85.512 237.868 85.5707 237.713 85.688C237.558 85.8 237.465 85.9653 237.433 86.184H236.681C236.75 85.7307 236.945 85.3947 237.265 85.176C237.585 84.952 237.993 84.84 238.489 84.84C239.028 84.84 239.457 84.9733 239.777 85.24C240.102 85.5013 240.265 85.976 240.265 86.664V89H239.497V88.608C239.497 88.4587 239.526 88.2987 239.585 88.128C239.59 88.112 239.596 88.0907 239.601 88.064C239.606 88.0373 239.606 88.016 239.601 88C239.601 87.984 239.593 87.9733 239.577 87.968L239.553 87.96C239.526 87.96 239.508 87.9733 239.497 88C239.492 88.0267 239.486 88.0427 239.481 88.048C239.364 88.3573 239.172 88.6053 238.905 88.792C238.638 88.9733 238.324 89.064 237.961 89.064C237.705 89.064 237.468 89.0133 237.249 88.912C237.036 88.8053 236.865 88.6613 236.737 88.48C236.614 88.2933 236.553 88.0853 236.553 87.856ZM239.497 86.792C239.406 86.904 239.278 86.9813 239.113 87.024C238.953 87.0667 238.713 87.1093 238.393 87.152C238.334 87.1573 238.228 87.1707 238.073 87.192C237.817 87.2293 237.628 87.2987 237.505 87.4C237.382 87.496 237.321 87.6347 237.321 87.816C237.321 87.976 237.38 88.1093 237.497 88.216C237.62 88.3227 237.798 88.376 238.033 88.376C238.284 88.376 238.518 88.3227 238.737 88.216C238.961 88.104 239.142 87.9307 239.281 87.696C239.425 87.456 239.497 87.1547 239.497 86.792ZM245.318 84.84C245.718 84.84 246.067 84.9333 246.366 85.12C246.67 85.3067 246.902 85.5627 247.062 85.888C247.222 86.208 247.302 86.5627 247.302 86.952C247.302 87.3413 247.222 87.6987 247.062 88.024C246.902 88.344 246.67 88.5973 246.366 88.784C246.067 88.9707 245.718 89.064 245.318 89.064C244.918 89.064 244.566 88.9707 244.262 88.784C243.963 88.5973 243.734 88.344 243.574 88.024C243.414 87.6987 243.334 87.3413 243.334 86.952C243.334 86.5627 243.414 86.208 243.574 85.888C243.734 85.5627 243.963 85.3067 244.262 85.12C244.566 84.9333 244.918 84.84 245.318 84.84ZM245.318 88.36C245.691 88.36 245.987 88.2267 246.206 87.96C246.425 87.688 246.534 87.352 246.534 86.952C246.534 86.552 246.425 86.2187 246.206 85.952C245.987 85.68 245.691 85.544 245.318 85.544C244.945 85.544 244.649 85.68 244.43 85.952C244.211 86.2187 244.102 86.552 244.102 86.952C244.102 87.352 244.211 87.688 244.43 87.96C244.649 88.2267 244.945 88.36 245.318 88.36ZM251.651 86.896C251.651 86.992 251.643 87.0853 251.627 87.176H248.571C248.597 87.5173 248.723 87.8 248.947 88.024C249.171 88.248 249.461 88.36 249.819 88.36C250.085 88.36 250.293 88.2987 250.443 88.176C250.597 88.048 250.712 87.8613 250.787 87.616H251.579C251.488 88.032 251.291 88.3787 250.987 88.656C250.688 88.928 250.293 89.064 249.803 89.064C249.387 89.064 249.027 88.9707 248.723 88.784C248.424 88.5973 248.197 88.344 248.043 88.024C247.888 87.704 247.811 87.3467 247.811 86.952C247.811 86.5467 247.893 86.184 248.059 85.864C248.224 85.544 248.456 85.2933 248.755 85.112C249.059 84.9307 249.403 84.84 249.787 84.84C250.107 84.84 250.408 84.9147 250.691 85.064C250.979 85.208 251.211 85.4347 251.387 85.744C251.563 86.0533 251.651 86.4373 251.651 86.896ZM250.883 86.536C250.856 86.2267 250.749 85.9787 250.563 85.792C250.376 85.6053 250.131 85.512 249.827 85.512C249.469 85.512 249.192 85.6053 248.995 85.792C248.803 85.9787 248.675 86.2267 248.611 86.536H250.883ZM253.861 83.912C253.643 83.912 253.496 83.9547 253.421 84.04C253.352 84.1253 253.317 84.2853 253.317 84.52V84.904H254.469V85.576H253.317V89H252.549V85.576H251.909V84.904H252.549V84.44C252.549 84.0027 252.648 83.6933 252.845 83.512C253.048 83.3307 253.365 83.24 253.797 83.24H254.469V83.912H253.861ZM258.565 86.896C258.565 86.992 258.557 87.0853 258.541 87.176H255.485C255.511 87.5173 255.637 87.8 255.861 88.024C256.085 88.248 256.375 88.36 256.733 88.36C256.999 88.36 257.207 88.2987 257.357 88.176C257.511 88.048 257.626 87.8613 257.701 87.616H258.493C258.402 88.032 258.205 88.3787 257.901 88.656C257.602 88.928 257.207 89.064 256.717 89.064C256.301 89.064 255.941 88.9707 255.637 88.784C255.338 88.5973 255.111 88.344 254.957 88.024C254.802 87.704 254.725 87.3467 254.725 86.952C254.725 86.5467 254.807 86.184 254.973 85.864C255.138 85.544 255.37 85.2933 255.669 85.112C255.973 84.9307 256.317 84.84 256.701 84.84C257.021 84.84 257.322 84.9147 257.605 85.064C257.893 85.208 258.125 85.4347 258.301 85.744C258.477 86.0533 258.565 86.4373 258.565 86.896ZM257.797 86.536C257.77 86.2267 257.663 85.9787 257.477 85.792C257.29 85.6053 257.045 85.512 256.741 85.512C256.383 85.512 256.106 85.6053 255.909 85.792C255.717 85.9787 255.589 86.2267 255.525 86.536H257.797ZM261.399 84.84C261.885 84.84 262.258 84.9813 262.519 85.264C262.786 85.5467 262.919 85.9813 262.919 86.568V89H262.151V86.728C262.151 86.28 262.066 85.9653 261.895 85.784C261.73 85.6027 261.501 85.512 261.207 85.512C261.005 85.512 260.807 85.5787 260.615 85.712C260.429 85.84 260.274 86.024 260.151 86.264C260.034 86.504 259.975 86.7787 259.975 87.088V89H259.207V84.904H259.975V85.176C259.975 85.368 259.946 85.5493 259.887 85.72C259.871 85.7733 259.861 85.8133 259.855 85.84C259.855 85.8667 259.869 85.8827 259.895 85.888H259.911C259.938 85.888 259.962 85.864 259.983 85.816C260.042 85.672 260.138 85.5253 260.271 85.376C260.405 85.2213 260.567 85.0933 260.759 84.992C260.957 84.8907 261.17 84.84 261.399 84.84ZM263.722 83.24H264.554V84.136H263.722V83.24ZM263.754 84.904H264.522V89H263.754V84.904ZM267.673 84.84C268.158 84.84 268.531 84.9813 268.793 85.264C269.059 85.5467 269.193 85.9813 269.193 86.568V89H268.425V86.728C268.425 86.28 268.339 85.9653 268.169 85.784C268.003 85.6027 267.774 85.512 267.481 85.512C267.278 85.512 267.081 85.5787 266.889 85.712C266.702 85.84 266.547 86.024 266.425 86.264C266.307 86.504 266.249 86.7787 266.249 87.088V89H265.481V84.904H266.249V85.176C266.249 85.368 266.219 85.5493 266.161 85.72C266.145 85.7733 266.134 85.8133 266.129 85.84C266.129 85.8667 266.142 85.8827 266.169 85.888H266.185C266.211 85.888 266.235 85.864 266.257 85.816C266.315 85.672 266.411 85.5253 266.545 85.376C266.678 85.2213 266.841 85.0933 267.033 84.992C267.23 84.8907 267.443 84.84 267.673 84.84ZM269.834 86.92C269.834 86.5147 269.909 86.1547 270.058 85.84C270.213 85.5253 270.426 85.28 270.698 85.104C270.975 84.928 271.29 84.84 271.642 84.84C271.957 84.84 272.231 84.9173 272.466 85.072C272.701 85.2267 272.885 85.44 273.018 85.712C273.039 85.7813 273.069 85.8107 273.106 85.8C273.133 85.7947 273.146 85.7787 273.146 85.752C273.146 85.7307 273.141 85.7067 273.13 85.68C273.119 85.648 273.111 85.6267 273.106 85.616C273.079 85.5467 273.061 85.48 273.05 85.416C273.039 85.352 273.034 85.272 273.034 85.176V84.904H273.802V88.632C273.802 89.2773 273.623 89.7653 273.266 90.096C272.914 90.432 272.439 90.6 271.842 90.6C271.266 90.6 270.818 90.472 270.498 90.216C270.178 89.9653 269.999 89.6453 269.962 89.256H270.73C270.762 89.4693 270.855 89.6453 271.01 89.784C271.165 89.9227 271.439 89.992 271.834 89.992C272.223 89.992 272.519 89.8773 272.722 89.648C272.93 89.4187 273.034 89.08 273.034 88.632C273.034 88.4667 273.058 88.3253 273.106 88.208C273.133 88.1387 273.146 88.0987 273.146 88.088C273.146 88.0613 273.133 88.0453 273.106 88.04H273.09C273.058 88.04 273.034 88.064 273.018 88.112C272.885 88.3947 272.701 88.6133 272.466 88.768C272.231 88.9227 271.957 89 271.642 89C271.29 89 270.975 88.912 270.698 88.736C270.426 88.56 270.213 88.3147 270.058 88C269.909 87.6853 269.834 87.3253 269.834 86.92ZM271.818 88.296C272.175 88.296 272.466 88.1653 272.69 87.904C272.919 87.6427 273.034 87.3147 273.034 86.92C273.034 86.5253 272.919 86.1973 272.69 85.936C272.466 85.6747 272.175 85.544 271.818 85.544C271.434 85.544 271.135 85.672 270.922 85.928C270.709 86.184 270.602 86.5147 270.602 86.92C270.602 87.3253 270.709 87.656 270.922 87.912C271.135 88.168 271.434 88.296 271.818 88.296Z" fill="black"/>
</svg>
