<svg width="291" height="191" viewBox="0 0 291 191" fill="none" xmlns="http://www.w3.org/2000/svg">
<path fill-rule="evenodd" clip-rule="evenodd" d="M287 169.5L33.7586 169.5L33.7586 168.5L287 168.5L287 169.5Z" fill="#F0F0F0"/>
<path fill-rule="evenodd" clip-rule="evenodd" d="M287 113.5L33.7586 113.5L33.7586 112.5L287 112.5L287 113.5Z" fill="#F0F0F0"/>
<path fill-rule="evenodd" clip-rule="evenodd" d="M285.241 57.5L32 57.5L32 56.5L285.241 56.5L285.241 57.5Z" fill="#F0F0F0"/>
<path fill-rule="evenodd" clip-rule="evenodd" d="M285.241 1.50002L32 1.5L32 0.5L285.241 0.500022L285.241 1.50002Z" fill="#F0F0F0"/>
<path d="M2.04805 163.368V169H1.40805V165H0.128052V164.552C0.533385 164.552 0.824052 164.522 1.00005 164.464C1.18139 164.4 1.30405 164.293 1.36805 164.144C1.43739 163.989 1.49339 163.73 1.53605 163.368H2.04805Z" fill="#808080"/>
<path d="M5.44136 163.304C5.88936 163.304 6.2707 163.429 6.58536 163.68C6.90536 163.925 7.14536 164.266 7.30536 164.704C7.4707 165.136 7.55336 165.629 7.55336 166.184C7.55336 166.738 7.4707 167.234 7.30536 167.672C7.14536 168.104 6.90536 168.445 6.58536 168.696C6.2707 168.941 5.88936 169.064 5.44136 169.064C4.99336 169.064 4.60936 168.941 4.28936 168.696C3.9747 168.445 3.7347 168.104 3.56936 167.672C3.40936 167.234 3.32936 166.738 3.32936 166.184C3.32936 165.629 3.40936 165.136 3.56936 164.704C3.7347 164.266 3.9747 163.925 4.28936 163.68C4.60936 163.429 4.99336 163.304 5.44136 163.304ZM5.44136 168.488C5.91603 168.488 6.2787 168.28 6.52936 167.864C6.78536 167.442 6.91336 166.882 6.91336 166.184C6.91336 165.485 6.78536 164.928 6.52936 164.512C6.2787 164.09 5.91603 163.88 5.44136 163.88C4.9667 163.88 4.60136 164.09 4.34536 164.512C4.0947 164.928 3.96936 165.485 3.96936 166.184C3.96936 166.882 4.0947 167.442 4.34536 167.864C4.60136 168.28 4.9667 168.488 5.44136 168.488Z" fill="#808080"/>
<path d="M14.9302 164.84C15.3196 164.84 15.6369 164.968 15.8822 165.224C16.1329 165.474 16.2582 165.88 16.2582 166.44V169H15.6182V166.344C15.6182 166.034 15.5382 165.797 15.3782 165.632C15.2236 165.466 15.0182 165.384 14.7622 165.384C14.5916 165.384 14.4342 165.442 14.2902 165.56C14.1462 165.672 14.0316 165.826 13.9462 166.024C13.8662 166.216 13.8262 166.424 13.8262 166.648V169H13.1862V166.44C13.1862 166.109 13.1196 165.85 12.9862 165.664C12.8529 165.477 12.6582 165.384 12.4022 165.384C12.2529 165.384 12.0982 165.445 11.9382 165.568C11.7836 165.685 11.6529 165.848 11.5462 166.056C11.4449 166.264 11.3942 166.493 11.3942 166.744V169H10.7542V164.904H11.3942V165.2C11.3942 165.344 11.3676 165.485 11.3142 165.624C11.2822 165.709 11.2849 165.757 11.3222 165.768H11.3382C11.3756 165.768 11.3996 165.749 11.4102 165.712C11.5329 165.445 11.6982 165.234 11.9062 165.08C12.1142 164.92 12.3542 164.84 12.6262 164.84C12.8822 164.84 13.0982 164.912 13.2742 165.056C13.4556 165.2 13.5836 165.408 13.6582 165.68C13.6689 165.722 13.6956 165.744 13.7382 165.744C13.7649 165.744 13.7836 165.738 13.7942 165.728C13.8049 165.717 13.8129 165.704 13.8182 165.688C13.9196 165.442 14.0689 165.24 14.2662 165.08C14.4636 164.92 14.6849 164.84 14.9302 164.84Z" fill="#808080"/>
<path d="M17.4582 167.592C17.4635 167.848 17.5568 168.066 17.7382 168.248C17.9195 168.429 18.2022 168.52 18.5862 168.52C18.8368 168.52 19.0422 168.485 19.2022 168.416C19.3622 168.341 19.4768 168.253 19.5462 168.152C19.6155 168.05 19.6502 167.949 19.6502 167.848C19.6502 167.709 19.6102 167.6 19.5302 167.52C19.4555 167.44 19.3222 167.373 19.1302 167.32C18.9382 167.266 18.6582 167.218 18.2902 167.176C17.8635 167.128 17.5328 167.008 17.2982 166.816C17.0688 166.618 16.9542 166.381 16.9542 166.104C16.9542 165.89 17.0182 165.688 17.1462 165.496C17.2742 165.304 17.4608 165.146 17.7062 165.024C17.9515 164.901 18.2422 164.84 18.5782 164.84C19.0635 164.84 19.4422 164.965 19.7142 165.216C19.9915 165.461 20.1435 165.784 20.1702 166.184H19.5382C19.5222 165.954 19.4395 165.765 19.2902 165.616C19.1408 165.461 18.8955 165.384 18.5542 165.384C18.2288 165.384 17.9862 165.45 17.8262 165.584C17.6715 165.712 17.5942 165.858 17.5942 166.024C17.5942 166.12 17.6182 166.205 17.6662 166.28C17.7142 166.354 17.8182 166.426 17.9782 166.496C18.1435 166.56 18.3888 166.61 18.7142 166.648C19.2262 166.712 19.6155 166.829 19.8822 167C20.1542 167.17 20.2902 167.413 20.2902 167.728C20.2902 168.144 20.1328 168.472 19.8182 168.712C19.5088 168.946 19.0875 169.064 18.5542 169.064C18.0315 169.064 17.6182 168.933 17.3142 168.672C17.0155 168.405 16.8555 168.045 16.8342 167.592H17.4582Z" fill="#808080"/>
<path d="M0.512085 113.08L2.97608 109.368H3.96809V113.208H4.73608V113.752H3.96809V115H3.32808V113.752H0.512085V113.08ZM1.12008 113.248C1.08275 113.301 1.08008 113.341 1.11209 113.368C1.11742 113.373 1.12808 113.376 1.14408 113.376C1.16009 113.376 1.18675 113.362 1.22409 113.336C1.27208 113.293 1.32542 113.261 1.38408 113.24C1.44808 113.218 1.53075 113.208 1.63209 113.208H3.32808V110.352C3.32808 110.261 3.33075 110.186 3.33609 110.128C3.34675 110.069 3.36809 110.002 3.40008 109.928C3.42142 109.874 3.43475 109.834 3.44008 109.808C3.44542 109.781 3.43475 109.762 3.40809 109.752H3.39209C3.37075 109.752 3.35209 109.762 3.33609 109.784C3.32009 109.805 3.30942 109.818 3.30409 109.824L1.12008 113.248Z" fill="#808080"/>
<path d="M7.74609 109.304C8.19409 109.304 8.57542 109.429 8.89009 109.68C9.21009 109.925 9.45009 110.266 9.61009 110.704C9.77542 111.136 9.85808 111.629 9.85808 112.184C9.85808 112.738 9.77542 113.234 9.61009 113.672C9.45009 114.104 9.21009 114.445 8.89009 114.696C8.57542 114.941 8.19409 115.064 7.74609 115.064C7.29809 115.064 6.91408 114.941 6.59408 114.696C6.27942 114.445 6.03942 114.104 5.87408 113.672C5.71408 113.234 5.63408 112.738 5.63408 112.184C5.63408 111.629 5.71408 111.136 5.87408 110.704C6.03942 110.266 6.27942 109.925 6.59408 109.68C6.91408 109.429 7.29809 109.304 7.74609 109.304ZM7.74609 114.488C8.22075 114.488 8.58342 114.28 8.83408 113.864C9.09008 113.442 9.21809 112.882 9.21809 112.184C9.21809 111.485 9.09008 110.928 8.83408 110.512C8.58342 110.09 8.22075 109.88 7.74609 109.88C7.27142 109.88 6.90608 110.09 6.65008 110.512C6.39942 110.928 6.27409 111.485 6.27409 112.184C6.27409 112.882 6.39942 113.442 6.65008 113.864C6.90608 114.28 7.27142 114.488 7.74609 114.488Z" fill="#808080"/>
<path d="M4.61609 58.1197C4.93609 58.2477 5.18142 58.4264 5.35209 58.6557C5.52275 58.8797 5.60809 59.141 5.60809 59.4397C5.60809 59.7597 5.52542 60.0424 5.36009 60.2877C5.19475 60.533 4.95742 60.725 4.64809 60.8637C4.33875 60.997 3.97609 61.0637 3.56009 61.0637C3.14409 61.0637 2.78142 60.997 2.47209 60.8637C2.16275 60.725 1.92542 60.533 1.76008 60.2877C1.59475 60.0424 1.51208 59.7597 1.51208 59.4397C1.51208 59.1304 1.59742 58.8584 1.76808 58.6237C1.93875 58.3837 2.18408 58.2157 2.50409 58.1197C2.51475 58.1144 2.53342 58.109 2.56009 58.1037C2.59209 58.093 2.60808 58.069 2.60808 58.0317C2.60808 57.9997 2.59209 57.981 2.56009 57.9757C2.53342 57.965 2.51742 57.9597 2.51208 57.9597C2.26675 57.869 2.06942 57.717 1.92008 57.5037C1.77608 57.285 1.70408 57.053 1.70408 56.8077C1.70408 56.5197 1.77342 56.2637 1.91208 56.0397C2.05608 55.8104 2.26675 55.6317 2.54409 55.5037C2.82142 55.3704 3.16008 55.3037 3.56009 55.3037C3.96009 55.3037 4.29875 55.3704 4.57609 55.5037C4.85342 55.6317 5.06142 55.8104 5.20009 56.0397C5.34409 56.2637 5.41609 56.5197 5.41609 56.8077C5.41609 57.0637 5.34142 57.3064 5.19209 57.5357C5.04809 57.7597 4.85342 57.901 4.60809 57.9597C4.60275 57.9597 4.58409 57.965 4.55209 57.9757C4.52542 57.981 4.51208 57.9997 4.51208 58.0317C4.51208 58.069 4.52542 58.093 4.55209 58.1037C4.58409 58.109 4.60542 58.1144 4.61609 58.1197ZM2.34409 56.8237C2.34409 57.101 2.44542 57.3277 2.64809 57.5037C2.85609 57.6797 3.16008 57.7677 3.56009 57.7677C3.96009 57.7677 4.26142 57.6797 4.46409 57.5037C4.67209 57.3277 4.77609 57.101 4.77609 56.8237C4.77609 56.5464 4.67209 56.3197 4.46409 56.1437C4.26142 55.9677 3.96009 55.8797 3.56009 55.8797C3.16008 55.8797 2.85609 55.9677 2.64809 56.1437C2.44542 56.3197 2.34409 56.5464 2.34409 56.8237ZM3.56009 60.4877C4.01342 60.4877 4.36009 60.3864 4.60009 60.1837C4.84542 59.981 4.96809 59.725 4.96809 59.4157C4.96809 59.2184 4.91209 59.0397 4.80009 58.8797C4.68809 58.7144 4.52542 58.5837 4.31209 58.4877C4.09875 58.3917 3.84809 58.3437 3.56009 58.3437C3.27208 58.3437 3.02142 58.3917 2.80808 58.4877C2.59475 58.5837 2.43208 58.7144 2.32008 58.8797C2.20809 59.0397 2.15209 59.2184 2.15209 59.4157C2.15209 59.725 2.27208 59.981 2.51208 60.1837C2.75742 60.3864 3.10675 60.4877 3.56009 60.4877Z" fill="#808080"/>
<path d="M8.61327 55.3037C9.06127 55.3037 9.44261 55.429 9.75727 55.6797C10.0773 55.925 10.3173 56.2664 10.4773 56.7037C10.6426 57.1357 10.7253 57.629 10.7253 58.1837C10.7253 58.7384 10.6426 59.2344 10.4773 59.6717C10.3173 60.1037 10.0773 60.445 9.75727 60.6957C9.44261 60.941 9.06127 61.0637 8.61327 61.0637C8.16527 61.0637 7.78127 60.941 7.46127 60.6957C7.14661 60.445 6.90661 60.1037 6.74127 59.6717C6.58127 59.2344 6.50127 58.7384 6.50127 58.1837C6.50127 57.629 6.58127 57.1357 6.74127 56.7037C6.90661 56.2664 7.14661 55.925 7.46127 55.6797C7.78127 55.429 8.16527 55.3037 8.61327 55.3037ZM8.61327 60.4877C9.08794 60.4877 9.45061 60.2797 9.70127 59.8637C9.95727 59.4424 10.0853 58.8824 10.0853 58.1837C10.0853 57.485 9.95727 56.9277 9.70127 56.5117C9.45061 56.0904 9.08794 55.8797 8.61327 55.8797C8.13861 55.8797 7.77327 56.0904 7.51727 56.5117C7.26661 56.9277 7.14127 57.485 7.14127 58.1837C7.14127 58.8824 7.26661 59.4424 7.51727 59.8637C7.77327 60.2797 8.13861 60.4877 8.61327 60.4877Z" fill="#808080"/>
<path d="M2.04805 1.36771V6.99971H1.40805V2.99971H0.128052V2.55171C0.533385 2.55171 0.824052 2.52238 1.00005 2.46371C1.18139 2.39971 1.30405 2.29304 1.36805 2.14371C1.43739 1.98904 1.49339 1.73038 1.53605 1.36771H2.04805Z" fill="#808080"/>
<path d="M3.45736 6.10371C3.55336 6.04504 3.6387 5.99438 3.71336 5.95171C3.79336 5.90371 3.86536 5.86104 3.92936 5.82371C4.5267 5.46638 5.00403 5.16238 5.36136 4.91171C5.72403 4.66104 6.0307 4.37838 6.28136 4.06371C6.53203 3.74371 6.65736 3.40238 6.65736 3.03971C6.65736 2.84771 6.61203 2.66371 6.52136 2.48771C6.43603 2.31171 6.29736 2.16771 6.10536 2.05571C5.9187 1.93838 5.68136 1.87971 5.39336 1.87971C4.9347 1.87971 4.60403 2.01571 4.40136 2.28771C4.1987 2.55438 4.09736 2.88504 4.09736 3.27971H3.45736C3.45736 2.91171 3.52936 2.57838 3.67336 2.27971C3.8227 1.98104 4.04403 1.74371 4.33736 1.56771C4.6307 1.39171 4.9827 1.30371 5.39336 1.30371C5.9747 1.30371 6.43603 1.46371 6.77736 1.78371C7.12403 2.09838 7.29736 2.52238 7.29736 3.05571C7.29736 3.50904 7.14536 3.92771 6.84136 4.31171C6.5427 4.69571 6.1827 5.03438 5.76136 5.32771C5.34003 5.61571 4.7507 5.98104 3.99336 6.42371C3.94003 6.45571 3.92136 6.48771 3.93736 6.51971C3.94803 6.53571 3.96136 6.54371 3.97736 6.54371C3.98803 6.54371 4.0147 6.53304 4.05736 6.51171C4.10003 6.49038 4.15336 6.47704 4.21736 6.47171C4.2867 6.46104 4.38003 6.45571 4.49736 6.45571H7.42536V6.99971H3.45736V6.10371Z" fill="#808080"/>
<path d="M10.3086 1.30371C10.7566 1.30371 11.1379 1.42904 11.4526 1.67971C11.7726 1.92504 12.0126 2.26638 12.1726 2.70371C12.3379 3.13571 12.4206 3.62904 12.4206 4.18371C12.4206 4.73838 12.3379 5.23438 12.1726 5.67171C12.0126 6.10371 11.7726 6.44504 11.4526 6.69571C11.1379 6.94104 10.7566 7.06371 10.3086 7.06371C9.86055 7.06371 9.47655 6.94104 9.15655 6.69571C8.84188 6.44504 8.60188 6.10371 8.43655 5.67171C8.27655 5.23438 8.19655 4.73838 8.19655 4.18371C8.19655 3.62904 8.27655 3.13571 8.43655 2.70371C8.60188 2.26638 8.84188 1.92504 9.15655 1.67971C9.47655 1.42904 9.86055 1.30371 10.3086 1.30371ZM10.3086 6.48771C10.7832 6.48771 11.1459 6.27971 11.3966 5.86371C11.6526 5.44238 11.7806 4.88238 11.7806 4.18371C11.7806 3.48504 11.6526 2.92771 11.3966 2.51171C11.1459 2.09038 10.7832 1.87971 10.3086 1.87971C9.83389 1.87971 9.46855 2.09038 9.21255 2.51171C8.96188 2.92771 8.83655 3.48504 8.83655 4.18371C8.83655 4.88238 8.96188 5.44238 9.21255 5.86371C9.46855 6.27971 9.83389 6.48771 10.3086 6.48771Z" fill="#808080"/>
<path d="M18.56 184.304C19.024 184.304 19.4186 184.429 19.744 184.68C20.0693 184.925 20.3146 185.266 20.48 185.704C20.6506 186.136 20.736 186.629 20.736 187.184C20.736 187.738 20.6506 188.234 20.48 188.672C20.3146 189.104 20.0693 189.445 19.744 189.696C19.4186 189.941 19.024 190.064 18.56 190.064C18.096 190.064 17.7013 189.941 17.376 189.696C17.0506 189.445 16.8026 189.104 16.632 188.672C16.4666 188.234 16.384 187.738 16.384 187.184C16.384 186.629 16.4666 186.136 16.632 185.704C16.8026 185.266 17.0506 184.925 17.376 184.68C17.7013 184.429 18.096 184.304 18.56 184.304ZM18.56 189.36C19.0133 189.36 19.36 189.162 19.6 188.768C19.8453 188.373 19.968 187.845 19.968 187.184C19.968 186.522 19.8453 185.994 19.6 185.6C19.36 185.205 19.0133 185.008 18.56 185.008C18.1066 185.008 17.7573 185.205 17.512 185.6C17.272 185.994 17.152 186.522 17.152 187.184C17.152 187.845 17.272 188.373 17.512 188.768C17.7573 189.162 18.1066 189.36 18.56 189.36Z" fill="#999999"/>
<path d="M22.5252 188.976V190H21.5012V188.976H22.5252ZM22.5252 185.904V186.928H21.5012V185.904H22.5252Z" fill="#999999"/>
<path d="M25.4662 184.304C25.9302 184.304 26.3249 184.429 26.6502 184.68C26.9756 184.925 27.2209 185.266 27.3862 185.704C27.5569 186.136 27.6422 186.629 27.6422 187.184C27.6422 187.738 27.5569 188.234 27.3862 188.672C27.2209 189.104 26.9756 189.445 26.6502 189.696C26.3249 189.941 25.9302 190.064 25.4662 190.064C25.0022 190.064 24.6076 189.941 24.2822 189.696C23.9569 189.445 23.7089 189.104 23.5382 188.672C23.3729 188.234 23.2902 187.738 23.2902 187.184C23.2902 186.629 23.3729 186.136 23.5382 185.704C23.7089 185.266 23.9569 184.925 24.2822 184.68C24.6076 184.429 25.0022 184.304 25.4662 184.304ZM25.4662 189.36C25.9196 189.36 26.2662 189.162 26.5062 188.768C26.7516 188.373 26.8742 187.845 26.8742 187.184C26.8742 186.522 26.7516 185.994 26.5062 185.6C26.2662 185.205 25.9196 185.008 25.4662 185.008C25.0129 185.008 24.6636 185.205 24.4182 185.6C24.1782 185.994 24.0582 186.522 24.0582 187.184C24.0582 187.845 24.1782 188.373 24.4182 188.768C24.6636 189.162 25.0129 189.36 25.4662 189.36Z" fill="#999999"/>
<path d="M30.5834 184.304C31.0474 184.304 31.4421 184.429 31.7674 184.68C32.0927 184.925 32.3381 185.266 32.5034 185.704C32.6741 186.136 32.7594 186.629 32.7594 187.184C32.7594 187.738 32.6741 188.234 32.5034 188.672C32.3381 189.104 32.0927 189.445 31.7674 189.696C31.4421 189.941 31.0474 190.064 30.5834 190.064C30.1194 190.064 29.7247 189.941 29.3994 189.696C29.0741 189.445 28.8261 189.104 28.6554 188.672C28.4901 188.234 28.4074 187.738 28.4074 187.184C28.4074 186.629 28.4901 186.136 28.6554 185.704C28.8261 185.266 29.0741 184.925 29.3994 184.68C29.7247 184.429 30.1194 184.304 30.5834 184.304ZM30.5834 189.36C31.0367 189.36 31.3834 189.162 31.6234 188.768C31.8687 188.373 31.9914 187.845 31.9914 187.184C31.9914 186.522 31.8687 185.994 31.6234 185.6C31.3834 185.205 31.0367 185.008 30.5834 185.008C30.1301 185.008 29.7807 185.205 29.5354 185.6C29.2954 185.994 29.1754 186.522 29.1754 187.184C29.1754 187.845 29.2954 188.373 29.5354 188.768C29.7807 189.162 30.1301 189.36 30.5834 189.36Z" fill="#999999"/>
<path d="M40.3253 185.84C40.7466 185.84 41.0826 185.97 41.3333 186.232C41.5893 186.488 41.7173 186.912 41.7173 187.504V190H40.9493V187.408C40.9493 186.81 40.6799 186.512 40.1413 186.512C39.9866 186.512 39.8373 186.56 39.6933 186.656C39.5546 186.746 39.4399 186.88 39.3493 187.056C39.2639 187.232 39.2213 187.44 39.2213 187.68V190H38.4533V187.504C38.4533 187.178 38.3946 186.933 38.2773 186.768C38.16 186.597 37.9733 186.512 37.7173 186.512C37.5519 186.512 37.392 186.568 37.2373 186.68C37.0826 186.792 36.9573 186.952 36.8613 187.16C36.7706 187.362 36.7253 187.594 36.7253 187.856V190H35.9573V185.904H36.7253V186.176C36.7253 186.336 36.696 186.509 36.6373 186.696C36.6373 186.706 36.632 186.725 36.6213 186.752C36.616 186.773 36.616 186.792 36.6213 186.808C36.6266 186.818 36.6373 186.826 36.6533 186.832H36.6773C36.704 186.832 36.7253 186.81 36.7413 186.768C36.8426 186.485 37.0026 186.261 37.2213 186.096C37.4453 185.925 37.696 185.84 37.9733 185.84C38.2293 185.84 38.4533 185.922 38.6453 186.088C38.8373 186.248 38.9626 186.456 39.0213 186.712C39.032 186.754 39.0586 186.776 39.1013 186.776C39.144 186.776 39.1733 186.754 39.1893 186.712C39.296 186.434 39.448 186.221 39.6453 186.072C39.848 185.917 40.0746 185.84 40.3253 185.84Z" fill="#999999"/>
<path d="M109.176 184.368V190H108.408V186H107.128V185.424C107.544 185.424 107.837 185.397 108.008 185.344C108.184 185.29 108.301 185.2 108.36 185.072C108.424 184.938 108.483 184.704 108.536 184.368H109.176Z" fill="#999999"/>
<path d="M111.478 188.976V190H110.454V188.976H111.478ZM111.478 185.904V186.928H110.454V185.904H111.478Z" fill="#999999"/>
<path d="M113.123 188.144C113.123 188.458 113.219 188.741 113.411 188.992C113.603 189.237 113.945 189.36 114.435 189.36C114.739 189.36 114.985 189.309 115.171 189.208C115.363 189.106 115.499 188.984 115.579 188.84C115.659 188.69 115.699 188.546 115.699 188.408C115.699 188.077 115.505 187.829 115.115 187.664C114.726 187.498 114.217 187.424 113.587 187.44V186.8C113.966 186.81 114.305 186.778 114.603 186.704C114.907 186.629 115.145 186.517 115.315 186.368C115.486 186.218 115.571 186.045 115.571 185.848C115.571 185.618 115.483 185.421 115.307 185.256C115.131 185.09 114.846 185.008 114.451 185.008C114.009 185.008 113.697 185.12 113.515 185.344C113.339 185.562 113.251 185.813 113.251 186.096H112.499C112.499 185.749 112.577 185.44 112.731 185.168C112.886 184.896 113.107 184.685 113.395 184.536C113.689 184.381 114.033 184.304 114.427 184.304C115.019 184.304 115.486 184.434 115.827 184.696C116.169 184.957 116.339 185.322 116.339 185.792C116.339 186.074 116.241 186.333 116.043 186.568C115.846 186.797 115.595 186.949 115.291 187.024C115.27 187.029 115.249 187.037 115.227 187.048C115.206 187.058 115.195 187.077 115.195 187.104C115.195 187.141 115.211 187.162 115.243 187.168C115.275 187.173 115.294 187.176 115.299 187.176C115.651 187.245 115.934 187.394 116.147 187.624C116.361 187.848 116.467 188.112 116.467 188.416C116.467 188.725 116.385 189.005 116.219 189.256C116.059 189.506 115.827 189.704 115.523 189.848C115.219 189.992 114.862 190.064 114.451 190.064C113.785 190.064 113.27 189.898 112.907 189.568C112.55 189.232 112.371 188.757 112.371 188.144H113.123Z" fill="#999999"/>
<path d="M119.537 184.304C120.001 184.304 120.395 184.429 120.721 184.68C121.046 184.925 121.291 185.266 121.457 185.704C121.627 186.136 121.713 186.629 121.713 187.184C121.713 187.738 121.627 188.234 121.457 188.672C121.291 189.104 121.046 189.445 120.721 189.696C120.395 189.941 120.001 190.064 119.537 190.064C119.073 190.064 118.678 189.941 118.353 189.696C118.027 189.445 117.779 189.104 117.609 188.672C117.443 188.234 117.361 187.738 117.361 187.184C117.361 186.629 117.443 186.136 117.609 185.704C117.779 185.266 118.027 184.925 118.353 184.68C118.678 184.429 119.073 184.304 119.537 184.304ZM119.537 189.36C119.99 189.36 120.337 189.162 120.577 188.768C120.822 188.373 120.945 187.845 120.945 187.184C120.945 186.522 120.822 185.994 120.577 185.6C120.337 185.205 119.99 185.008 119.537 185.008C119.083 185.008 118.734 185.205 118.489 185.6C118.249 185.994 118.129 186.522 118.129 187.184C118.129 187.845 118.249 188.373 118.489 188.768C118.734 189.162 119.083 189.36 119.537 189.36Z" fill="#999999"/>
<path d="M188.264 188.144C188.264 188.458 188.36 188.741 188.552 188.992C188.744 189.237 189.085 189.36 189.576 189.36C189.88 189.36 190.125 189.309 190.312 189.208C190.504 189.106 190.64 188.984 190.72 188.84C190.8 188.69 190.84 188.546 190.84 188.408C190.84 188.077 190.645 187.829 190.256 187.664C189.867 187.498 189.357 187.424 188.728 187.44V186.8C189.107 186.81 189.445 186.778 189.744 186.704C190.048 186.629 190.285 186.517 190.456 186.368C190.627 186.218 190.712 186.045 190.712 185.848C190.712 185.618 190.624 185.421 190.448 185.256C190.272 185.09 189.987 185.008 189.592 185.008C189.149 185.008 188.837 185.12 188.656 185.344C188.48 185.562 188.392 185.813 188.392 186.096H187.64C187.64 185.749 187.717 185.44 187.872 185.168C188.027 184.896 188.248 184.685 188.536 184.536C188.829 184.381 189.173 184.304 189.568 184.304C190.16 184.304 190.627 184.434 190.968 184.696C191.309 184.957 191.48 185.322 191.48 185.792C191.48 186.074 191.381 186.333 191.184 186.568C190.987 186.797 190.736 186.949 190.432 187.024C190.411 187.029 190.389 187.037 190.368 187.048C190.347 187.058 190.336 187.077 190.336 187.104C190.336 187.141 190.352 187.162 190.384 187.168C190.416 187.173 190.435 187.176 190.44 187.176C190.792 187.245 191.075 187.394 191.288 187.624C191.501 187.848 191.608 188.112 191.608 188.416C191.608 188.725 191.525 189.005 191.36 189.256C191.2 189.506 190.968 189.704 190.664 189.848C190.36 189.992 190.003 190.064 189.592 190.064C188.925 190.064 188.411 189.898 188.048 189.568C187.691 189.232 187.512 188.757 187.512 188.144H188.264Z" fill="#999999"/>
<path d="M193.525 188.976V190H192.501V188.976H193.525ZM193.525 185.904V186.928H192.501V185.904H193.525Z" fill="#999999"/>
<path d="M195.17 188.144C195.17 188.458 195.266 188.741 195.458 188.992C195.65 189.237 195.992 189.36 196.482 189.36C196.786 189.36 197.032 189.309 197.218 189.208C197.41 189.106 197.546 188.984 197.626 188.84C197.706 188.69 197.746 188.546 197.746 188.408C197.746 188.077 197.552 187.829 197.162 187.664C196.773 187.498 196.264 187.424 195.634 187.44V186.8C196.013 186.81 196.352 186.778 196.65 186.704C196.954 186.629 197.192 186.517 197.362 186.368C197.533 186.218 197.618 186.045 197.618 185.848C197.618 185.618 197.53 185.421 197.354 185.256C197.178 185.09 196.893 185.008 196.498 185.008C196.056 185.008 195.744 185.12 195.562 185.344C195.386 185.562 195.298 185.813 195.298 186.096H194.546C194.546 185.749 194.624 185.44 194.778 185.168C194.933 184.896 195.154 184.685 195.442 184.536C195.736 184.381 196.08 184.304 196.474 184.304C197.066 184.304 197.533 184.434 197.874 184.696C198.216 184.957 198.386 185.322 198.386 185.792C198.386 186.074 198.288 186.333 198.09 186.568C197.893 186.797 197.642 186.949 197.338 187.024C197.317 187.029 197.296 187.037 197.274 187.048C197.253 187.058 197.242 187.077 197.242 187.104C197.242 187.141 197.258 187.162 197.29 187.168C197.322 187.173 197.341 187.176 197.346 187.176C197.698 187.245 197.981 187.394 198.194 187.624C198.408 187.848 198.514 188.112 198.514 188.416C198.514 188.725 198.432 189.005 198.266 189.256C198.106 189.506 197.874 189.704 197.57 189.848C197.266 189.992 196.909 190.064 196.498 190.064C195.832 190.064 195.317 189.898 194.954 189.568C194.597 189.232 194.418 188.757 194.418 188.144H195.17Z" fill="#999999"/>
<path d="M201.583 184.304C202.047 184.304 202.442 184.429 202.767 184.68C203.093 184.925 203.338 185.266 203.503 185.704C203.674 186.136 203.759 186.629 203.759 187.184C203.759 187.738 203.674 188.234 203.503 188.672C203.338 189.104 203.093 189.445 202.767 189.696C202.442 189.941 202.047 190.064 201.583 190.064C201.119 190.064 200.725 189.941 200.399 189.696C200.074 189.445 199.826 189.104 199.655 188.672C199.49 188.234 199.407 187.738 199.407 187.184C199.407 186.629 199.49 186.136 199.655 185.704C199.826 185.266 200.074 184.925 200.399 184.68C200.725 184.429 201.119 184.304 201.583 184.304ZM201.583 189.36C202.037 189.36 202.383 189.162 202.623 188.768C202.869 188.373 202.991 187.845 202.991 187.184C202.991 186.522 202.869 185.994 202.623 185.6C202.383 185.205 202.037 185.008 201.583 185.008C201.13 185.008 200.781 185.205 200.535 185.6C200.295 185.994 200.175 186.522 200.175 187.184C200.175 187.845 200.295 188.373 200.535 188.768C200.781 189.162 201.13 189.36 201.583 189.36Z" fill="#999999"/>
<path d="M269.512 187.656C269.512 186.594 269.677 185.77 270.008 185.184C270.344 184.597 270.896 184.304 271.664 184.304C272.027 184.304 272.341 184.37 272.608 184.504C272.875 184.632 273.08 184.808 273.224 185.032C273.373 185.25 273.459 185.498 273.48 185.776H272.744C272.707 185.573 272.603 185.394 272.432 185.24C272.267 185.085 272.013 185.008 271.672 185.008C270.915 185.008 270.475 185.48 270.352 186.424C270.336 186.504 270.304 186.592 270.256 186.688C270.245 186.709 270.232 186.733 270.216 186.76C270.2 186.786 270.189 186.81 270.184 186.832C270.184 186.848 270.195 186.861 270.216 186.872H270.232C270.248 186.872 270.275 186.853 270.312 186.816C270.461 186.645 270.653 186.509 270.888 186.408C271.128 186.301 271.413 186.248 271.744 186.248C272.117 186.248 272.445 186.322 272.728 186.472C273.011 186.621 273.227 186.832 273.376 187.104C273.531 187.376 273.608 187.69 273.608 188.048C273.608 188.432 273.523 188.776 273.352 189.08C273.181 189.384 272.944 189.624 272.64 189.8C272.336 189.976 271.987 190.064 271.592 190.064C270.947 190.064 270.437 189.864 270.064 189.464C269.696 189.064 269.512 188.461 269.512 187.656ZM270.28 188.12C270.28 188.477 270.395 188.773 270.624 189.008C270.853 189.242 271.165 189.36 271.56 189.36C271.955 189.36 272.267 189.242 272.496 189.008C272.725 188.773 272.84 188.477 272.84 188.12C272.84 187.741 272.728 187.448 272.504 187.24C272.28 187.032 271.965 186.928 271.56 186.928C271.16 186.928 270.845 187.037 270.616 187.256C270.392 187.474 270.28 187.762 270.28 188.12Z" fill="#999999"/>
<path d="M275.525 188.976V190H274.501V188.976H275.525ZM275.525 185.904V186.928H274.501V185.904H275.525Z" fill="#999999"/>
<path d="M278.466 184.304C278.93 184.304 279.325 184.429 279.65 184.68C279.976 184.925 280.221 185.266 280.386 185.704C280.557 186.136 280.642 186.629 280.642 187.184C280.642 187.738 280.557 188.234 280.386 188.672C280.221 189.104 279.976 189.445 279.65 189.696C279.325 189.941 278.93 190.064 278.466 190.064C278.002 190.064 277.608 189.941 277.282 189.696C276.957 189.445 276.709 189.104 276.538 188.672C276.373 188.234 276.29 187.738 276.29 187.184C276.29 186.629 276.373 186.136 276.538 185.704C276.709 185.266 276.957 184.925 277.282 184.68C277.608 184.429 278.002 184.304 278.466 184.304ZM278.466 189.36C278.92 189.36 279.266 189.162 279.506 188.768C279.752 188.373 279.874 187.845 279.874 187.184C279.874 186.522 279.752 185.994 279.506 185.6C279.266 185.205 278.92 185.008 278.466 185.008C278.013 185.008 277.664 185.205 277.418 185.6C277.178 185.994 277.058 186.522 277.058 187.184C277.058 187.845 277.178 188.373 277.418 188.768C277.664 189.162 278.013 189.36 278.466 189.36Z" fill="#999999"/>
<path d="M283.583 184.304C284.047 184.304 284.442 184.429 284.767 184.68C285.093 184.925 285.338 185.266 285.503 185.704C285.674 186.136 285.759 186.629 285.759 187.184C285.759 187.738 285.674 188.234 285.503 188.672C285.338 189.104 285.093 189.445 284.767 189.696C284.442 189.941 284.047 190.064 283.583 190.064C283.119 190.064 282.725 189.941 282.399 189.696C282.074 189.445 281.826 189.104 281.655 188.672C281.49 188.234 281.407 187.738 281.407 187.184C281.407 186.629 281.49 186.136 281.655 185.704C281.826 185.266 282.074 184.925 282.399 184.68C282.725 184.429 283.119 184.304 283.583 184.304ZM283.583 189.36C284.037 189.36 284.383 189.162 284.623 188.768C284.869 188.373 284.991 187.845 284.991 187.184C284.991 186.522 284.869 185.994 284.623 185.6C284.383 185.205 284.037 185.008 283.583 185.008C283.13 185.008 282.781 185.205 282.535 185.6C282.295 185.994 282.175 186.522 282.175 187.184C282.175 187.845 282.295 188.373 282.535 188.768C282.781 189.162 283.13 189.36 283.583 189.36Z" fill="#999999"/>
<path fill-rule="evenodd" clip-rule="evenodd" d="M84.9167 14.3593C85.5607 12.5773 88.091 12.6065 88.6938 14.4029L114.05 89.9733L140.676 95.1849L167.51 88.4351C168.48 88.191 169.482 88.7017 169.854 89.6307L194.857 152.018L212.335 129.71C212.608 129.362 212.99 129.113 213.42 129.005L228.964 125.081L244.428 89.2889C244.694 88.6723 245.252 88.2307 245.913 88.113L284.825 81.1898C285.369 81.093 285.888 81.4554 285.985 81.9992C286.081 82.5429 285.719 83.0621 285.175 83.1589L246.264 90.0821L230.8 125.874C230.553 126.445 230.056 126.868 229.453 127.02L213.909 130.944L196.431 153.251C195.481 154.464 193.574 154.192 193.001 152.762L167.998 90.3747L141.164 97.1245C140.879 97.1963 140.581 97.2042 140.292 97.1477L113.666 91.9361C112.96 91.7979 112.383 91.2914 112.154 90.6095L86.7976 15.0391L60.7273 87.1756C60.1132 88.8748 57.7392 88.9532 57.0144 87.2981L31.084 28.0871C30.8624 27.5812 31.093 26.9915 31.5989 26.7699C32.1048 26.5484 32.6945 26.7789 32.916 27.2848L58.8464 86.4958L84.9167 14.3593Z" fill="#FDA2FF"/>
<path d="M233 125C233 126.657 231.657 128 230 128C228.343 128 227 126.657 227 125C227 123.343 228.343 122 230 122C231.657 122 233 123.343 233 125Z" fill="#F000F5"/>
<path d="M249 89C249 90.6569 247.657 92 246 92C244.343 92 243 90.6569 243 89C243 87.3431 244.343 86 246 86C247.657 86 249 87.3431 249 89Z" fill="#F000F5"/>
<path d="M288 82C288 83.6569 286.657 85 285 85C283.343 85 282 83.6569 282 82C282 80.3431 283.343 79 285 79C286.657 79 288 80.3431 288 82Z" fill="#F000F5"/>
<path d="M217 130C217 131.657 215.657 133 214 133C212.343 133 211 131.657 211 130C211 128.343 212.343 127 214 127C215.657 127 217 128.343 217 130Z" fill="#F000F5"/>
<path d="M198 152C198 153.657 196.657 155 195 155C193.343 155 192 153.657 192 152C192 150.343 193.343 149 195 149C196.657 149 198 150.343 198 152Z" fill="#F000F5"/>
<path d="M171 89C171 90.6569 169.657 92 168 92C166.343 92 165 90.6569 165 89C165 87.3431 166.343 86 168 86C169.657 86 171 87.3431 171 89Z" fill="#F000F5"/>
<path d="M144 96C144 97.6569 142.657 99 141 99C139.343 99 138 97.6569 138 96C138 94.3431 139.343 93 141 93C142.657 93 144 94.3431 144 96Z" fill="#F000F5"/>
<path d="M116 90C116 91.6569 114.657 93 113 93C111.343 93 110 91.6569 110 90C110 88.3431 111.343 87 113 87C114.657 87 116 88.3431 116 90Z" fill="#F000F5"/>
<path d="M90 14C90 15.6569 88.6569 17 87 17C85.3431 17 84 15.6569 84 14C84 12.3431 85.3431 11 87 11C88.6569 11 90 12.3431 90 14Z" fill="#F000F5"/>
<path d="M35 27C35 28.6569 33.6569 30 32 30C30.3431 30 29 28.6569 29 27C29 25.3431 30.3431 24 32 24C33.6569 24 35 25.3431 35 27Z" fill="#F000F5"/>
<path d="M62 87C62 88.6569 60.6569 90 59 90C57.3431 90 56 88.6569 56 87C56 85.3431 57.3431 84 59 84C60.6569 84 62 85.3431 62 87Z" fill="#F000F5"/>
<path d="M28.368 14.3677V19.9997H27.344V16.1917H26.064V15.4237C26.4694 15.4237 26.7627 15.3944 26.944 15.3357C27.1254 15.2717 27.248 15.173 27.312 15.0397C27.376 14.901 27.4294 14.677 27.472 14.3677H28.368Z" fill="black"/>
<path d="M31.5712 14.3677V19.9997H30.5472V16.1917H29.2672V15.4237C29.6725 15.4237 29.9658 15.3944 30.1472 15.3357C30.3285 15.2717 30.4512 15.173 30.5152 15.0397C30.5792 14.901 30.6325 14.677 30.6752 14.3677H31.5712Z" fill="black"/>
<path d="M32.8543 17.6237C32.8543 16.5784 33.0356 15.765 33.3983 15.1837C33.7663 14.597 34.3396 14.3037 35.1183 14.3037C35.4703 14.3037 35.7903 14.373 36.0783 14.5117C36.3716 14.645 36.6063 14.829 36.7823 15.0637C36.9583 15.2984 37.0569 15.557 37.0783 15.8397H36.0703C35.9796 15.4557 35.6649 15.2637 35.1263 15.2637C34.7529 15.2637 34.4729 15.3597 34.2863 15.5517C34.1049 15.7437 34.0009 15.9704 33.9743 16.2317C33.9689 16.333 33.9423 16.429 33.8943 16.5197C33.8836 16.5464 33.8596 16.5837 33.8223 16.6317C33.7849 16.6744 33.7609 16.709 33.7503 16.7357C33.7449 16.757 33.7583 16.7784 33.7903 16.7997C33.7956 16.805 33.8036 16.8077 33.8143 16.8077C33.8463 16.8077 33.8729 16.7944 33.8943 16.7677C33.9209 16.7357 33.9369 16.717 33.9423 16.7117C34.2836 16.3384 34.7289 16.1517 35.2783 16.1517C35.6889 16.1517 36.0383 16.2317 36.3263 16.3917C36.6196 16.5517 36.8383 16.773 36.9823 17.0557C37.1316 17.3384 37.2063 17.661 37.2063 18.0237C37.2063 18.4077 37.1183 18.7544 36.9423 19.0637C36.7716 19.373 36.5236 19.6184 36.1983 19.7997C35.8729 19.9757 35.4943 20.0637 35.0623 20.0637C34.3743 20.0637 33.8329 19.861 33.4383 19.4557C33.0489 19.045 32.8543 18.4344 32.8543 17.6237ZM33.8783 18.0797C33.8783 18.3837 33.9796 18.6317 34.1823 18.8237C34.3849 19.0104 34.6676 19.1037 35.0303 19.1037C35.3929 19.1037 35.6756 19.0104 35.8783 18.8237C36.0809 18.6317 36.1823 18.3837 36.1823 18.0797C36.1823 17.7277 36.0809 17.4584 35.8783 17.2717C35.6809 17.085 35.3983 16.9917 35.0303 16.9917C34.6729 16.9917 34.3903 17.0957 34.1823 17.3037C33.9796 17.5117 33.8783 17.7704 33.8783 18.0797Z" fill="black"/>
<path d="M53.448 97.6237C53.448 96.5784 53.6293 95.765 53.992 95.1837C54.36 94.597 54.9333 94.3037 55.712 94.3037C56.064 94.3037 56.384 94.373 56.672 94.5117C56.9653 94.645 57.2 94.829 57.376 95.0637C57.552 95.2984 57.6507 95.557 57.672 95.8397H56.664C56.5733 95.4557 56.2587 95.2637 55.72 95.2637C55.3467 95.2637 55.0667 95.3597 54.88 95.5517C54.6987 95.7437 54.5947 95.9704 54.568 96.2317C54.5627 96.333 54.536 96.429 54.488 96.5197C54.4773 96.5464 54.4533 96.5837 54.416 96.6317C54.3787 96.6744 54.3547 96.709 54.344 96.7357C54.3387 96.757 54.352 96.7784 54.384 96.7997C54.3893 96.805 54.3973 96.8077 54.408 96.8077C54.44 96.8077 54.4667 96.7944 54.488 96.7677C54.5147 96.7357 54.5307 96.717 54.536 96.7117C54.8773 96.3384 55.3227 96.1517 55.872 96.1517C56.2827 96.1517 56.632 96.2317 56.92 96.3917C57.2133 96.5517 57.432 96.773 57.576 97.0557C57.7253 97.3384 57.8 97.661 57.8 98.0237C57.8 98.4077 57.712 98.7544 57.536 99.0637C57.3653 99.373 57.1173 99.6184 56.792 99.7997C56.4667 99.9757 56.088 100.064 55.656 100.064C54.968 100.064 54.4267 99.861 54.032 99.4557C53.6427 99.045 53.448 98.4344 53.448 97.6237ZM54.472 98.0797C54.472 98.3837 54.5733 98.6317 54.776 98.8237C54.9787 99.0104 55.2613 99.1037 55.624 99.1037C55.9867 99.1037 56.2693 99.0104 56.472 98.8237C56.6747 98.6317 56.776 98.3837 56.776 98.0797C56.776 97.7277 56.6747 97.4584 56.472 97.2717C56.2747 97.085 55.992 96.9917 55.624 96.9917C55.2667 96.9917 54.984 97.0957 54.776 97.3037C54.5733 97.5117 54.472 97.7704 54.472 98.0797Z" fill="black"/>
<path d="M60.874 94.3037C61.3647 94.3037 61.7807 94.429 62.122 94.6797C62.4687 94.925 62.73 95.2664 62.906 95.7037C63.0873 96.1357 63.178 96.629 63.178 97.1837C63.178 97.7384 63.0873 98.2344 62.906 98.6717C62.73 99.1037 62.4687 99.445 62.122 99.6957C61.7807 99.941 61.3647 100.064 60.874 100.064C60.3833 100.064 59.9647 99.941 59.618 99.6957C59.2767 99.445 59.0153 99.1037 58.834 98.6717C58.658 98.2344 58.57 97.7384 58.57 97.1837C58.57 96.629 58.658 96.1357 58.834 95.7037C59.0153 95.2664 59.2767 94.925 59.618 94.6797C59.9647 94.429 60.3833 94.3037 60.874 94.3037ZM60.874 99.1037C61.29 99.1037 61.6073 98.9304 61.826 98.5837C62.0447 98.2317 62.154 97.765 62.154 97.1837C62.154 96.6024 62.0447 96.1384 61.826 95.7917C61.6073 95.4397 61.29 95.2637 60.874 95.2637C60.458 95.2637 60.1407 95.4397 59.922 95.7917C59.7033 96.1384 59.594 96.6024 59.594 97.1837C59.594 97.765 59.7033 98.2317 59.922 98.5837C60.1407 98.9304 60.458 99.1037 60.874 99.1037Z" fill="black"/>
<path d="M83.368 1.36771V6.99971H82.344V3.19171H81.064V2.42371C81.4694 2.42371 81.7627 2.39438 81.944 2.33571C82.1254 2.27171 82.248 2.17304 82.312 2.03971C82.376 1.90104 82.4294 1.67704 82.472 1.36771H83.368Z" fill="black"/>
<path d="M86.5712 1.36771V6.99971H85.5472V3.19171H84.2672V2.42371C84.6725 2.42371 84.9658 2.39438 85.1472 2.33571C85.3285 2.27171 85.4512 2.17304 85.5152 2.03971C85.5792 1.90104 85.6325 1.67704 85.6752 1.36771H86.5712Z" fill="black"/>
<path d="M91.4463 4.17571C91.7396 4.28771 91.9609 4.45038 92.1103 4.66371C92.2596 4.87704 92.3343 5.12238 92.3343 5.39971C92.3343 5.70904 92.2463 5.99171 92.0703 6.24771C91.8943 6.49838 91.6356 6.69838 91.2943 6.84771C90.9583 6.99171 90.5583 7.06371 90.0943 7.06371C89.6303 7.06371 89.2276 6.99171 88.8863 6.84771C88.5503 6.69838 88.2943 6.49838 88.1183 6.24771C87.9423 5.99171 87.8543 5.70904 87.8543 5.39971C87.8543 5.12238 87.9289 4.87704 88.0783 4.66371C88.2276 4.45038 88.4489 4.28771 88.7423 4.17571C88.7529 4.17038 88.7743 4.16238 88.8063 4.15171C88.8383 4.14104 88.8623 4.12771 88.8783 4.11171C88.8996 4.09038 88.9103 4.06638 88.9103 4.03971C88.9103 4.00238 88.8996 3.97571 88.8783 3.95971C88.8569 3.94371 88.8329 3.93304 88.8063 3.92771C88.7849 3.91704 88.7689 3.90904 88.7583 3.90371C88.5343 3.79704 88.3583 3.65038 88.2303 3.46371C88.1076 3.27171 88.0463 3.06371 88.0463 2.83971C88.0463 2.56771 88.1236 2.31438 88.2783 2.07971C88.4329 1.84504 88.6623 1.65838 88.9663 1.51971C89.2756 1.37571 89.6516 1.30371 90.0943 1.30371C90.5369 1.30371 90.9103 1.37571 91.2143 1.51971C91.5236 1.65838 91.7556 1.84504 91.9103 2.07971C92.0649 2.31438 92.1423 2.56771 92.1423 2.83971C92.1423 3.06371 92.0783 3.27438 91.9503 3.47171C91.8276 3.66371 91.6543 3.80771 91.4303 3.90371C91.4196 3.90904 91.3983 3.91704 91.3663 3.92771C91.3396 3.93838 91.3183 3.95438 91.3023 3.97571C91.2863 3.99171 91.2783 4.01304 91.2783 4.03971C91.2783 4.07704 91.2889 4.10371 91.3103 4.11971C91.3369 4.13571 91.3636 4.14904 91.3903 4.15971C91.4169 4.16504 91.4356 4.17038 91.4463 4.17571ZM90.0943 2.23171C89.7529 2.23171 89.4969 2.29838 89.3263 2.43171C89.1556 2.55971 89.0703 2.72771 89.0703 2.93571C89.0703 3.14371 89.1556 3.31438 89.3263 3.44771C89.4969 3.57571 89.7529 3.63971 90.0943 3.63971C90.4356 3.63971 90.6916 3.57571 90.8623 3.44771C91.0329 3.31438 91.1183 3.14371 91.1183 2.93571C91.1183 2.72771 91.0329 2.55971 90.8623 2.43171C90.6916 2.29838 90.4356 2.23171 90.0943 2.23171ZM90.0943 6.13571C90.4889 6.13571 90.7903 6.06104 90.9983 5.91171C91.2063 5.76238 91.3103 5.57038 91.3103 5.33571C91.3103 5.10104 91.2063 4.90904 90.9983 4.75971C90.7903 4.61038 90.4889 4.53571 90.0943 4.53571C89.6996 4.53571 89.3983 4.61038 89.1903 4.75971C88.9823 4.90904 88.8783 5.10104 88.8783 5.33571C88.8783 5.57038 88.9823 5.76238 89.1903 5.91171C89.3983 6.06104 89.6996 6.13571 90.0943 6.13571Z" fill="black"/>
<path d="M108.688 98.5357C108.843 98.413 109.027 98.3197 109.24 98.2557C109.453 98.1864 109.677 98.1517 109.912 98.1517C110.237 98.1517 110.541 98.221 110.824 98.3597C111.112 98.493 111.347 98.7037 111.528 98.9917C111.709 99.2797 111.8 99.6424 111.8 100.08C111.8 100.453 111.712 100.792 111.536 101.096C111.36 101.394 111.101 101.632 110.76 101.808C110.424 101.978 110.019 102.064 109.544 102.064C109.128 102.064 108.76 101.984 108.44 101.824C108.125 101.664 107.88 101.442 107.704 101.16C107.533 100.877 107.448 100.56 107.448 100.208H108.456C108.456 100.458 108.555 100.672 108.752 100.848C108.955 101.018 109.24 101.104 109.608 101.104C109.981 101.104 110.269 101.013 110.472 100.832C110.675 100.65 110.776 100.4 110.776 100.08C110.776 99.7597 110.68 99.509 110.488 99.3277C110.301 99.141 110.011 99.0477 109.616 99.0477C109.355 99.0477 109.139 99.093 108.968 99.1837C108.797 99.2744 108.648 99.4024 108.52 99.5677H107.576L107.96 96.3677H111.296V97.3277H108.792L108.736 97.8797C108.72 98.045 108.675 98.1997 108.6 98.3437C108.584 98.3704 108.563 98.3997 108.536 98.4317C108.515 98.4637 108.501 98.4904 108.496 98.5117C108.496 98.533 108.507 98.5544 108.528 98.5757C108.539 98.5864 108.555 98.5917 108.576 98.5917C108.613 98.5917 108.651 98.573 108.688 98.5357Z" fill="black"/>
<path d="M116.29 99.1757C116.583 99.2877 116.805 99.4504 116.954 99.6637C117.103 99.877 117.178 100.122 117.178 100.4C117.178 100.709 117.09 100.992 116.914 101.248C116.738 101.498 116.479 101.698 116.138 101.848C115.802 101.992 115.402 102.064 114.938 102.064C114.474 102.064 114.071 101.992 113.73 101.848C113.394 101.698 113.138 101.498 112.962 101.248C112.786 100.992 112.698 100.709 112.698 100.4C112.698 100.122 112.773 99.877 112.922 99.6637C113.071 99.4504 113.293 99.2877 113.586 99.1757C113.597 99.1704 113.618 99.1624 113.65 99.1517C113.682 99.141 113.706 99.1277 113.722 99.1117C113.743 99.0904 113.754 99.0664 113.754 99.0397C113.754 99.0024 113.743 98.9757 113.722 98.9597C113.701 98.9437 113.677 98.933 113.65 98.9277C113.629 98.917 113.613 98.909 113.602 98.9037C113.378 98.797 113.202 98.6504 113.074 98.4637C112.951 98.2717 112.89 98.0637 112.89 97.8397C112.89 97.5677 112.967 97.3144 113.122 97.0797C113.277 96.845 113.506 96.6584 113.81 96.5197C114.119 96.3757 114.495 96.3037 114.938 96.3037C115.381 96.3037 115.754 96.3757 116.058 96.5197C116.367 96.6584 116.599 96.845 116.754 97.0797C116.909 97.3144 116.986 97.5677 116.986 97.8397C116.986 98.0637 116.922 98.2744 116.794 98.4717C116.671 98.6637 116.498 98.8077 116.274 98.9037C116.263 98.909 116.242 98.917 116.21 98.9277C116.183 98.9384 116.162 98.9544 116.146 98.9757C116.13 98.9917 116.122 99.013 116.122 99.0397C116.122 99.077 116.133 99.1037 116.154 99.1197C116.181 99.1357 116.207 99.149 116.234 99.1597C116.261 99.165 116.279 99.1704 116.29 99.1757ZM114.938 97.2317C114.597 97.2317 114.341 97.2984 114.17 97.4317C113.999 97.5597 113.914 97.7277 113.914 97.9357C113.914 98.1437 113.999 98.3144 114.17 98.4477C114.341 98.5757 114.597 98.6397 114.938 98.6397C115.279 98.6397 115.535 98.5757 115.706 98.4477C115.877 98.3144 115.962 98.1437 115.962 97.9357C115.962 97.7277 115.877 97.5597 115.706 97.4317C115.535 97.2984 115.279 97.2317 114.938 97.2317ZM114.938 101.136C115.333 101.136 115.634 101.061 115.842 100.912C116.05 100.762 116.154 100.57 116.154 100.336C116.154 100.101 116.05 99.909 115.842 99.7597C115.634 99.6104 115.333 99.5357 114.938 99.5357C114.543 99.5357 114.242 99.6104 114.034 99.7597C113.826 99.909 113.722 100.101 113.722 100.336C113.722 100.57 113.826 100.762 114.034 100.912C114.242 101.061 114.543 101.136 114.938 101.136Z" fill="black"/>
<path d="M137.688 104.536C137.843 104.413 138.027 104.32 138.24 104.256C138.453 104.187 138.677 104.152 138.912 104.152C139.237 104.152 139.541 104.221 139.824 104.36C140.112 104.493 140.347 104.704 140.528 104.992C140.709 105.28 140.8 105.643 140.8 106.08C140.8 106.453 140.712 106.792 140.536 107.096C140.36 107.395 140.101 107.632 139.76 107.808C139.424 107.979 139.019 108.064 138.544 108.064C138.128 108.064 137.76 107.984 137.44 107.824C137.125 107.664 136.88 107.443 136.704 107.16C136.533 106.877 136.448 106.56 136.448 106.208H137.456C137.456 106.459 137.555 106.672 137.752 106.848C137.955 107.019 138.24 107.104 138.608 107.104C138.981 107.104 139.269 107.013 139.472 106.832C139.675 106.651 139.776 106.4 139.776 106.08C139.776 105.76 139.68 105.509 139.488 105.328C139.301 105.141 139.011 105.048 138.616 105.048C138.355 105.048 138.139 105.093 137.968 105.184C137.797 105.275 137.648 105.403 137.52 105.568H136.576L136.96 102.368H140.296V103.328H137.792L137.736 103.88C137.72 104.045 137.675 104.2 137.6 104.344C137.584 104.371 137.563 104.4 137.536 104.432C137.515 104.464 137.501 104.491 137.496 104.512C137.496 104.533 137.507 104.555 137.528 104.576C137.539 104.587 137.555 104.592 137.576 104.592C137.613 104.592 137.651 104.573 137.688 104.536Z" fill="black"/>
<path d="M145.666 103.264C145.149 103.717 144.754 104.205 144.482 104.728C144.215 105.251 144.037 105.76 143.946 106.256C143.855 106.752 143.789 107.333 143.746 108H142.594C142.69 106.965 142.882 106.067 143.17 105.304C143.463 104.536 143.941 103.877 144.602 103.328C144.634 103.301 144.658 103.275 144.674 103.248C144.69 103.221 144.687 103.195 144.666 103.168C144.639 103.141 144.618 103.128 144.602 103.128C144.586 103.128 144.567 103.136 144.546 103.152C144.525 103.163 144.509 103.171 144.498 103.176C144.365 103.256 144.162 103.296 143.89 103.296H141.57V102.368H145.666V103.264Z" fill="black"/>
<path d="M163.448 79.6237C163.448 78.5784 163.629 77.765 163.992 77.1837C164.36 76.597 164.933 76.3037 165.712 76.3037C166.064 76.3037 166.384 76.373 166.672 76.5117C166.965 76.645 167.2 76.829 167.376 77.0637C167.552 77.2984 167.651 77.557 167.672 77.8397H166.664C166.573 77.4557 166.259 77.2637 165.72 77.2637C165.347 77.2637 165.067 77.3597 164.88 77.5517C164.699 77.7437 164.595 77.9704 164.568 78.2317C164.563 78.333 164.536 78.429 164.488 78.5197C164.477 78.5464 164.453 78.5837 164.416 78.6317C164.379 78.6744 164.355 78.709 164.344 78.7357C164.339 78.757 164.352 78.7784 164.384 78.7997C164.389 78.805 164.397 78.8077 164.408 78.8077C164.44 78.8077 164.467 78.7944 164.488 78.7677C164.515 78.7357 164.531 78.717 164.536 78.7117C164.877 78.3384 165.323 78.1517 165.872 78.1517C166.283 78.1517 166.632 78.2317 166.92 78.3917C167.213 78.5517 167.432 78.773 167.576 79.0557C167.725 79.3384 167.8 79.661 167.8 80.0237C167.8 80.4077 167.712 80.7544 167.536 81.0637C167.365 81.373 167.117 81.6184 166.792 81.7997C166.467 81.9757 166.088 82.0637 165.656 82.0637C164.968 82.0637 164.427 81.861 164.032 81.4557C163.643 81.045 163.448 80.4344 163.448 79.6237ZM164.472 80.0797C164.472 80.3837 164.573 80.6317 164.776 80.8237C164.979 81.0104 165.261 81.1037 165.624 81.1037C165.987 81.1037 166.269 81.0104 166.472 80.8237C166.675 80.6317 166.776 80.3837 166.776 80.0797C166.776 79.7277 166.675 79.4584 166.472 79.2717C166.275 79.085 165.992 78.9917 165.624 78.9917C165.267 78.9917 164.984 79.0957 164.776 79.3037C164.573 79.5117 164.472 79.7704 164.472 80.0797Z" fill="black"/>
<path d="M168.698 80.9117C169.045 80.7144 169.333 80.557 169.562 80.4397C170.127 80.1357 170.559 79.8877 170.858 79.6957C171.162 79.4984 171.41 79.2744 171.602 79.0237C171.799 78.7677 171.898 78.477 171.898 78.1517C171.898 77.885 171.799 77.6717 171.602 77.5117C171.405 77.3464 171.141 77.2637 170.81 77.2637C170.463 77.2637 170.194 77.3704 170.002 77.5837C169.815 77.797 169.722 78.0717 169.722 78.4077H168.698C168.698 78.0077 168.778 77.6504 168.938 77.3357C169.098 77.0157 169.338 76.765 169.658 76.5837C169.978 76.397 170.362 76.3037 170.81 76.3037C171.237 76.3037 171.61 76.3837 171.93 76.5437C172.25 76.6984 172.495 76.917 172.666 77.1997C172.837 77.477 172.922 77.7944 172.922 78.1517C172.922 78.6157 172.799 79.0184 172.554 79.3597C172.309 79.6957 172.013 79.973 171.666 80.1917C171.319 80.4104 170.863 80.6584 170.298 80.9357L169.986 81.0877C169.906 81.125 169.882 81.173 169.914 81.2317C169.93 81.2584 169.951 81.2717 169.978 81.2717C169.994 81.2717 170.013 81.2664 170.034 81.2557C170.061 81.245 170.079 81.237 170.09 81.2317C170.197 81.1784 170.298 81.1384 170.394 81.1117C170.495 81.085 170.613 81.0717 170.746 81.0717H173.05V81.9997H168.698V80.9117Z" fill="black"/>
<path d="M192.368 158.368V164H191.344V160.192H190.064V159.424C190.469 159.424 190.763 159.395 190.944 159.336C191.125 159.272 191.248 159.173 191.312 159.04C191.376 158.901 191.429 158.677 191.472 158.368H192.368Z" fill="black"/>
<path d="M194.891 160.536C195.046 160.413 195.23 160.32 195.443 160.256C195.656 160.187 195.88 160.152 196.115 160.152C196.44 160.152 196.744 160.221 197.027 160.36C197.315 160.493 197.55 160.704 197.731 160.992C197.912 161.28 198.003 161.643 198.003 162.08C198.003 162.453 197.915 162.792 197.739 163.096C197.563 163.395 197.304 163.632 196.963 163.808C196.627 163.979 196.222 164.064 195.747 164.064C195.331 164.064 194.963 163.984 194.643 163.824C194.328 163.664 194.083 163.443 193.907 163.16C193.736 162.877 193.651 162.56 193.651 162.208H194.659C194.659 162.459 194.758 162.672 194.955 162.848C195.158 163.019 195.443 163.104 195.811 163.104C196.184 163.104 196.472 163.013 196.675 162.832C196.878 162.651 196.979 162.4 196.979 162.08C196.979 161.76 196.883 161.509 196.691 161.328C196.504 161.141 196.214 161.048 195.819 161.048C195.558 161.048 195.342 161.093 195.171 161.184C195 161.275 194.851 161.403 194.723 161.568H193.779L194.163 158.368H197.499V159.328H194.995L194.939 159.88C194.923 160.045 194.878 160.2 194.803 160.344C194.787 160.371 194.766 160.4 194.739 160.432C194.718 160.464 194.704 160.491 194.699 160.512C194.699 160.533 194.71 160.555 194.731 160.576C194.742 160.587 194.758 160.592 194.779 160.592C194.816 160.592 194.854 160.573 194.891 160.536Z" fill="black"/>
<path d="M208.448 121.912C208.795 121.714 209.083 121.557 209.312 121.44C209.877 121.136 210.309 120.888 210.608 120.696C210.912 120.498 211.16 120.274 211.352 120.024C211.549 119.768 211.648 119.477 211.648 119.152C211.648 118.885 211.549 118.672 211.352 118.512C211.155 118.346 210.891 118.264 210.56 118.264C210.213 118.264 209.944 118.37 209.752 118.584C209.565 118.797 209.472 119.072 209.472 119.408H208.448C208.448 119.008 208.528 118.65 208.688 118.336C208.848 118.016 209.088 117.765 209.408 117.584C209.728 117.397 210.112 117.304 210.56 117.304C210.987 117.304 211.36 117.384 211.68 117.544C212 117.698 212.245 117.917 212.416 118.2C212.587 118.477 212.672 118.794 212.672 119.152C212.672 119.616 212.549 120.018 212.304 120.36C212.059 120.696 211.763 120.973 211.416 121.192C211.069 121.41 210.613 121.658 210.048 121.936L209.736 122.088C209.656 122.125 209.632 122.173 209.664 122.232C209.68 122.258 209.701 122.272 209.728 122.272C209.744 122.272 209.763 122.266 209.784 122.256C209.811 122.245 209.829 122.237 209.84 122.232C209.947 122.178 210.048 122.138 210.144 122.112C210.245 122.085 210.363 122.072 210.496 122.072H212.8V123H208.448V121.912Z" fill="black"/>
<path d="M214.805 119.536C214.96 119.413 215.144 119.32 215.357 119.256C215.571 119.186 215.795 119.152 216.029 119.152C216.355 119.152 216.659 119.221 216.941 119.36C217.229 119.493 217.464 119.704 217.645 119.992C217.827 120.28 217.917 120.642 217.917 121.08C217.917 121.453 217.829 121.792 217.653 122.096C217.477 122.394 217.219 122.632 216.877 122.808C216.541 122.978 216.136 123.064 215.661 123.064C215.245 123.064 214.877 122.984 214.557 122.824C214.243 122.664 213.997 122.442 213.821 122.16C213.651 121.877 213.565 121.56 213.565 121.208H214.573C214.573 121.458 214.672 121.672 214.869 121.848C215.072 122.018 215.357 122.104 215.725 122.104C216.099 122.104 216.387 122.013 216.589 121.832C216.792 121.65 216.893 121.4 216.893 121.08C216.893 120.76 216.797 120.509 216.605 120.328C216.419 120.141 216.128 120.048 215.733 120.048C215.472 120.048 215.256 120.093 215.085 120.184C214.915 120.274 214.765 120.402 214.637 120.568H213.693L214.077 117.368H217.413V118.328H214.909L214.853 118.88C214.837 119.045 214.792 119.2 214.717 119.344C214.701 119.37 214.68 119.4 214.653 119.432C214.632 119.464 214.619 119.49 214.613 119.512C214.613 119.533 214.624 119.554 214.645 119.576C214.656 119.586 214.672 119.592 214.693 119.592C214.731 119.592 214.768 119.573 214.805 119.536Z" fill="black"/>
<path d="M227.448 136.912C227.795 136.714 228.083 136.557 228.312 136.44C228.877 136.136 229.309 135.888 229.608 135.696C229.912 135.498 230.16 135.274 230.352 135.024C230.549 134.768 230.648 134.477 230.648 134.152C230.648 133.885 230.549 133.672 230.352 133.512C230.155 133.346 229.891 133.264 229.56 133.264C229.213 133.264 228.944 133.37 228.752 133.584C228.565 133.797 228.472 134.072 228.472 134.408H227.448C227.448 134.008 227.528 133.65 227.688 133.336C227.848 133.016 228.088 132.765 228.408 132.584C228.728 132.397 229.112 132.304 229.56 132.304C229.987 132.304 230.36 132.384 230.68 132.544C231 132.698 231.245 132.917 231.416 133.2C231.587 133.477 231.672 133.794 231.672 134.152C231.672 134.616 231.549 135.018 231.304 135.36C231.059 135.696 230.763 135.973 230.416 136.192C230.069 136.41 229.613 136.658 229.048 136.936L228.736 137.088C228.656 137.125 228.632 137.173 228.664 137.232C228.68 137.258 228.701 137.272 228.728 137.272C228.744 137.272 228.763 137.266 228.784 137.256C228.811 137.245 228.829 137.237 228.84 137.232C228.947 137.178 229.048 137.138 229.144 137.112C229.245 137.085 229.363 137.072 229.496 137.072H231.8V138H227.448V136.912Z" fill="black"/>
<path d="M236.533 133.264C236.016 133.717 235.621 134.205 235.349 134.728C235.083 135.25 234.904 135.76 234.813 136.256C234.723 136.752 234.656 137.333 234.613 138H233.461C233.557 136.965 233.749 136.066 234.037 135.304C234.331 134.536 234.808 133.877 235.469 133.328C235.501 133.301 235.525 133.274 235.541 133.248C235.557 133.221 235.555 133.194 235.533 133.168C235.507 133.141 235.485 133.128 235.469 133.128C235.453 133.128 235.435 133.136 235.413 133.152C235.392 133.162 235.376 133.17 235.365 133.176C235.232 133.256 235.029 133.296 234.757 133.296H232.437V132.368H236.533V133.264Z" fill="black"/>
<path d="M241.688 76.5362C241.843 76.4135 242.027 76.3202 242.24 76.2562C242.453 76.1868 242.677 76.1522 242.912 76.1522C243.237 76.1522 243.541 76.2215 243.824 76.3602C244.112 76.4935 244.347 76.7042 244.528 76.9922C244.709 77.2802 244.8 77.6428 244.8 78.0802C244.8 78.4535 244.712 78.7922 244.536 79.0962C244.36 79.3948 244.101 79.6322 243.76 79.8082C243.424 79.9788 243.019 80.0642 242.544 80.0642C242.128 80.0642 241.76 79.9842 241.44 79.8242C241.125 79.6642 240.88 79.4428 240.704 79.1602C240.533 78.8775 240.448 78.5602 240.448 78.2082H241.456C241.456 78.4588 241.555 78.6722 241.752 78.8482C241.955 79.0188 242.24 79.1042 242.608 79.1042C242.981 79.1042 243.269 79.0135 243.472 78.8322C243.675 78.6508 243.776 78.4002 243.776 78.0802C243.776 77.7602 243.68 77.5095 243.488 77.3282C243.301 77.1415 243.011 77.0482 242.616 77.0482C242.355 77.0482 242.139 77.0935 241.968 77.1842C241.797 77.2748 241.648 77.4028 241.52 77.5682H240.576L240.96 74.3682H244.296V75.3282H241.792L241.736 75.8802C241.72 76.0455 241.675 76.2002 241.6 76.3442C241.584 76.3708 241.563 76.4002 241.536 76.4322C241.515 76.4642 241.501 76.4908 241.496 76.5122C241.496 76.5335 241.507 76.5548 241.528 76.5762C241.539 76.5868 241.555 76.5922 241.576 76.5922C241.613 76.5922 241.651 76.5735 241.688 76.5362Z" fill="black"/>
<path d="M246.938 76.5362C247.093 76.4135 247.277 76.3202 247.49 76.2562C247.703 76.1868 247.927 76.1522 248.162 76.1522C248.487 76.1522 248.791 76.2215 249.074 76.3602C249.362 76.4935 249.597 76.7042 249.778 76.9922C249.959 77.2802 250.05 77.6428 250.05 78.0802C250.05 78.4535 249.962 78.7922 249.786 79.0962C249.61 79.3948 249.351 79.6322 249.01 79.8082C248.674 79.9788 248.269 80.0642 247.794 80.0642C247.378 80.0642 247.01 79.9842 246.69 79.8242C246.375 79.6642 246.13 79.4428 245.954 79.1602C245.783 78.8775 245.698 78.5602 245.698 78.2082H246.706C246.706 78.4588 246.805 78.6722 247.002 78.8482C247.205 79.0188 247.49 79.1042 247.858 79.1042C248.231 79.1042 248.519 79.0135 248.722 78.8322C248.925 78.6508 249.026 78.4002 249.026 78.0802C249.026 77.7602 248.93 77.5095 248.738 77.3282C248.551 77.1415 248.261 77.0482 247.866 77.0482C247.605 77.0482 247.389 77.0935 247.218 77.1842C247.047 77.2748 246.898 77.4028 246.77 77.5682H245.826L246.21 74.3682H249.546V75.3282H247.042L246.986 75.8802C246.97 76.0455 246.925 76.2002 246.85 76.3442C246.834 76.3708 246.813 76.4002 246.786 76.4322C246.765 76.4642 246.751 76.4908 246.746 76.5122C246.746 76.5335 246.757 76.5548 246.778 76.5762C246.789 76.5868 246.805 76.5922 246.826 76.5922C246.863 76.5922 246.901 76.5735 246.938 76.5362Z" fill="black"/>
<path d="M281.688 70.5357C281.843 70.413 282.027 70.3197 282.24 70.2557C282.453 70.1864 282.677 70.1517 282.912 70.1517C283.237 70.1517 283.541 70.221 283.824 70.3597C284.112 70.493 284.347 70.7037 284.528 70.9917C284.709 71.2797 284.8 71.6424 284.8 72.0797C284.8 72.453 284.712 72.7917 284.536 73.0957C284.36 73.3944 284.101 73.6317 283.76 73.8077C283.424 73.9784 283.019 74.0637 282.544 74.0637C282.128 74.0637 281.76 73.9837 281.44 73.8237C281.125 73.6637 280.88 73.4424 280.704 73.1597C280.533 72.877 280.448 72.5597 280.448 72.2077H281.456C281.456 72.4584 281.555 72.6717 281.752 72.8477C281.955 73.0184 282.24 73.1037 282.608 73.1037C282.981 73.1037 283.269 73.013 283.472 72.8317C283.675 72.6504 283.776 72.3997 283.776 72.0797C283.776 71.7597 283.68 71.509 283.488 71.3277C283.301 71.141 283.011 71.0477 282.616 71.0477C282.355 71.0477 282.139 71.093 281.968 71.1837C281.797 71.2744 281.648 71.4024 281.52 71.5677H280.576L280.96 68.3677H284.296V69.3277H281.792L281.736 69.8797C281.72 70.045 281.675 70.1997 281.6 70.3437C281.584 70.3704 281.563 70.3997 281.536 70.4317C281.515 70.4637 281.501 70.4904 281.496 70.5117C281.496 70.533 281.507 70.5544 281.528 70.5757C281.539 70.5864 281.555 70.5917 281.576 70.5917C281.613 70.5917 281.651 70.573 281.688 70.5357Z" fill="black"/>
<path d="M285.698 71.6237C285.698 70.5784 285.879 69.765 286.242 69.1837C286.61 68.597 287.183 68.3037 287.962 68.3037C288.314 68.3037 288.634 68.373 288.922 68.5117C289.215 68.645 289.45 68.829 289.626 69.0637C289.802 69.2984 289.901 69.557 289.922 69.8397H288.914C288.823 69.4557 288.509 69.2637 287.97 69.2637C287.597 69.2637 287.317 69.3597 287.13 69.5517C286.949 69.7437 286.845 69.9704 286.818 70.2317C286.813 70.333 286.786 70.429 286.738 70.5197C286.727 70.5464 286.703 70.5837 286.666 70.6317C286.629 70.6744 286.605 70.709 286.594 70.7357C286.589 70.757 286.602 70.7784 286.634 70.7997C286.639 70.805 286.647 70.8077 286.658 70.8077C286.69 70.8077 286.717 70.7944 286.738 70.7677C286.765 70.7357 286.781 70.717 286.786 70.7117C287.127 70.3384 287.573 70.1517 288.122 70.1517C288.533 70.1517 288.882 70.2317 289.17 70.3917C289.463 70.5517 289.682 70.773 289.826 71.0557C289.975 71.3384 290.05 71.661 290.05 72.0237C290.05 72.4077 289.962 72.7544 289.786 73.0637C289.615 73.373 289.367 73.6184 289.042 73.7997C288.717 73.9757 288.338 74.0637 287.906 74.0637C287.218 74.0637 286.677 73.861 286.282 73.4557C285.893 73.045 285.698 72.4344 285.698 71.6237ZM286.722 72.0797C286.722 72.3837 286.823 72.6317 287.026 72.8237C287.229 73.0104 287.511 73.1037 287.874 73.1037C288.237 73.1037 288.519 73.0104 288.722 72.8237C288.925 72.6317 289.026 72.3837 289.026 72.0797C289.026 71.7277 288.925 71.4584 288.722 71.2717C288.525 71.085 288.242 70.9917 287.874 70.9917C287.517 70.9917 287.234 71.0957 287.026 71.3037C286.823 71.5117 286.722 71.7704 286.722 72.0797Z" fill="black"/>
</svg>
