<svg width="16" height="16" viewBox="0 0 16 16" fill="none" xmlns="http://www.w3.org/2000/svg">
<g clip-path="url(#clip0_161_2728)">
<path d="M10.45 11.2163L11.2 10.4663L8.55004 7.79967V4.44967H7.55004V8.19967L10.45 11.2163ZM8.00004 14.6663C7.08893 14.6663 6.22782 14.4913 5.41671 14.1413C4.6056 13.7913 3.89726 13.3136 3.29171 12.708C2.68615 12.1025 2.20837 11.3941 1.85837 10.583C1.50837 9.7719 1.33337 8.91079 1.33337 7.99967C1.33337 7.08856 1.50837 6.22745 1.85837 5.41634C2.20837 4.60523 2.68615 3.8969 3.29171 3.29134C3.89726 2.68579 4.6056 2.20801 5.41671 1.85801C6.22782 1.50801 7.08893 1.33301 8.00004 1.33301C8.91115 1.33301 9.77226 1.50801 10.5834 1.85801C11.3945 2.20801 12.1028 2.68579 12.7084 3.29134C13.3139 3.8969 13.7917 4.60523 14.1417 5.41634C14.4917 6.22745 14.6667 7.08856 14.6667 7.99967C14.6667 8.91079 14.4917 9.7719 14.1417 10.583C13.7917 11.3941 13.3139 12.1025 12.7084 12.708C12.1028 13.3136 11.3945 13.7913 10.5834 14.1413C9.77226 14.4913 8.91115 14.6663 8.00004 14.6663ZM8.00004 13.6663C9.5556 13.6663 10.8889 13.1108 12 11.9997C13.1112 10.8886 13.6667 9.55523 13.6667 7.99967C13.6667 6.44412 13.1112 5.11079 12 3.99967C10.8889 2.88856 9.5556 2.33301 8.00004 2.33301C6.44448 2.33301 5.11115 2.88856 4.00004 3.99967C2.88893 5.11079 2.33337 6.44412 2.33337 7.99967C2.33337 9.55523 2.88893 10.8886 4.00004 11.9997C5.11115 13.1108 6.44448 13.6663 8.00004 13.6663Z" fill="black"/>
</g>
<defs>
<clipPath id="clip0_161_2728">
<rect width="16" height="16" fill="white"/>
</clipPath>
</defs>
</svg>
